<svg width="464" height="496" viewBox="0 0 464 496" fill="none" xmlns="http://www.w3.org/2000/svg">
<mask id="mask0" mask-type="alpha" maskUnits="userSpaceOnUse" x="0" y="0" width="464" height="496">
<rect width="464" height="496" fill="#C4C4C4"/>
</mask>
<g mask="url(#mask0)">
<circle cx="340" cy="407" r="4" fill="#F3F3FA"/>
<circle cx="340" cy="423" r="4" fill="#F3F3FA"/>
<circle cx="340" cy="439" r="4" fill="#F3F3FA"/>
<circle cx="340" cy="455" r="4" fill="#F3F3FA"/>
<circle cx="340" cy="471" r="4" fill="#F3F3FA"/>
<circle cx="340" cy="487" r="4" fill="#F3F3FA"/>
<circle cx="437" cy="407" r="4" fill="#F3F3FA"/>
<circle cx="437" cy="423" r="4" fill="#F3F3FA"/>
<circle cx="437" cy="439" r="4" fill="#F3F3FA"/>
<circle cx="437" cy="455" r="4" fill="#F3F3FA"/>
<circle cx="437" cy="471" r="4" fill="#F3F3FA"/>
<circle cx="437" cy="487" r="4" fill="#F3F3FA"/>
<circle cx="389" cy="407" r="4" fill="#F3F3FA"/>
<circle cx="389" cy="423" r="4" fill="#F3F3FA"/>
<circle cx="389" cy="439" r="4" fill="#F3F3FA"/>
<circle cx="389" cy="455" r="4" fill="#F3F3FA"/>
<circle cx="389" cy="471" r="4" fill="#F3F3FA"/>
<circle cx="389" cy="487" r="4" fill="#F3F3FA"/>
<circle cx="356" cy="407" r="4" fill="#F3F3FA"/>
<circle cx="356" cy="423" r="4" fill="#F3F3FA"/>
<circle cx="356" cy="439" r="4" fill="#F3F3FA"/>
<circle cx="356" cy="455" r="4" fill="#F3F3FA"/>
<circle cx="356" cy="471" r="4" fill="#F3F3FA"/>
<circle cx="356" cy="487" r="4" fill="#F3F3FA"/>
<circle cx="453" cy="407" r="4" fill="#F3F3FA"/>
<circle cx="453" cy="423" r="4" fill="#F3F3FA"/>
<circle cx="453" cy="439" r="4" fill="#F3F3FA"/>
<circle cx="453" cy="455" r="4" fill="#F3F3FA"/>
<circle cx="453" cy="471" r="4" fill="#F3F3FA"/>
<circle cx="453" cy="487" r="4" fill="#F3F3FA"/>
<circle cx="405" cy="407" r="4" fill="#F3F3FA"/>
<circle cx="405" cy="423" r="4" fill="#F3F3FA"/>
<circle cx="405" cy="439" r="4" fill="#F3F3FA"/>
<circle cx="405" cy="455" r="4" fill="#F3F3FA"/>
<circle cx="405" cy="471" r="4" fill="#F3F3FA"/>
<circle cx="405" cy="487" r="4" fill="#F3F3FA"/>
<circle cx="372" cy="407" r="4" fill="#F3F3FA"/>
<circle cx="372" cy="423" r="4" fill="#F3F3FA"/>
<circle cx="372" cy="439" r="4" fill="#F3F3FA"/>
<circle cx="372" cy="455" r="4" fill="#F3F3FA"/>
<circle cx="372" cy="471" r="4" fill="#F3F3FA"/>
<circle cx="372" cy="487" r="4" fill="#F3F3FA"/>
<circle cx="421" cy="407" r="4" fill="#F3F3FA"/>
<circle cx="421" cy="423" r="4" fill="#F3F3FA"/>
<circle cx="421" cy="439" r="4" fill="#F3F3FA"/>
<circle cx="421" cy="455" r="4" fill="#F3F3FA"/>
<circle cx="421" cy="471" r="4" fill="#F3F3FA"/>
<circle cx="421" cy="487" r="4" fill="#F3F3FA"/>
<circle cx="340" cy="247" r="4" fill="#F3F3FA"/>
<circle cx="340" cy="263" r="4" fill="#F3F3FA"/>
<circle cx="340" cy="279" r="4" fill="#F3F3FA"/>
<circle cx="340" cy="295" r="4" fill="#F3F3FA"/>
<circle cx="340" cy="311" r="4" fill="#F3F3FA"/>
<circle cx="340" cy="327" r="4" fill="#F3F3FA"/>
<circle cx="340" cy="343" r="4" fill="#F3F3FA"/>
<circle cx="340" cy="359" r="4" fill="#F3F3FA"/>
<circle cx="340" cy="375" r="4" fill="#F3F3FA"/>
<circle cx="340" cy="391" r="4" fill="#F3F3FA"/>
<circle cx="437" cy="247" r="4" fill="#F3F3FA"/>
<circle cx="437" cy="263" r="4" fill="#F3F3FA"/>
<circle cx="437" cy="279" r="4" fill="#F3F3FA"/>
<circle cx="437" cy="295" r="4" fill="#F3F3FA"/>
<circle cx="437" cy="311" r="4" fill="#F3F3FA"/>
<circle cx="437" cy="327" r="4" fill="#F3F3FA"/>
<circle cx="437" cy="343" r="4" fill="#F3F3FA"/>
<circle cx="437" cy="359" r="4" fill="#F3F3FA"/>
<circle cx="437" cy="375" r="4" fill="#F3F3FA"/>
<circle cx="437" cy="391" r="4" fill="#F3F3FA"/>
<circle cx="389" cy="247" r="4" fill="#F3F3FA"/>
<circle cx="389" cy="263" r="4" fill="#F3F3FA"/>
<circle cx="389" cy="279" r="4" fill="#F3F3FA"/>
<circle cx="389" cy="295" r="4" fill="#F3F3FA"/>
<circle cx="389" cy="311" r="4" fill="#F3F3FA"/>
<circle cx="389" cy="327" r="4" fill="#F3F3FA"/>
<circle cx="389" cy="343" r="4" fill="#F3F3FA"/>
<circle cx="389" cy="359" r="4" fill="#F3F3FA"/>
<circle cx="389" cy="375" r="4" fill="#F3F3FA"/>
<circle cx="389" cy="391" r="4" fill="#F3F3FA"/>
<circle cx="356" cy="247" r="4" fill="#F3F3FA"/>
<circle cx="356" cy="263" r="4" fill="#F3F3FA"/>
<circle cx="356" cy="279" r="4" fill="#F3F3FA"/>
<circle cx="356" cy="295" r="4" fill="#F3F3FA"/>
<circle cx="356" cy="311" r="4" fill="#F3F3FA"/>
<circle cx="356" cy="327" r="4" fill="#F3F3FA"/>
<circle cx="356" cy="343" r="4" fill="#F3F3FA"/>
<circle cx="356" cy="359" r="4" fill="#F3F3FA"/>
<circle cx="356" cy="375" r="4" fill="#F3F3FA"/>
<circle cx="356" cy="391" r="4" fill="#F3F3FA"/>
<circle cx="453" cy="247" r="4" fill="#F3F3FA"/>
<circle cx="453" cy="263" r="4" fill="#F3F3FA"/>
<circle cx="453" cy="279" r="4" fill="#F3F3FA"/>
<circle cx="453" cy="295" r="4" fill="#F3F3FA"/>
<circle cx="453" cy="311" r="4" fill="#F3F3FA"/>
<circle cx="453" cy="327" r="4" fill="#F3F3FA"/>
<circle cx="453" cy="343" r="4" fill="#F3F3FA"/>
<circle cx="453" cy="359" r="4" fill="#F3F3FA"/>
<circle cx="453" cy="375" r="4" fill="#F3F3FA"/>
<circle cx="453" cy="391" r="4" fill="#F3F3FA"/>
<circle cx="405" cy="247" r="4" fill="#F3F3FA"/>
<circle cx="405" cy="263" r="4" fill="#F3F3FA"/>
<circle cx="405" cy="279" r="4" fill="#F3F3FA"/>
<circle cx="405" cy="295" r="4" fill="#F3F3FA"/>
<circle cx="405" cy="311" r="4" fill="#F3F3FA"/>
<circle cx="405" cy="327" r="4" fill="#F3F3FA"/>
<circle cx="405" cy="343" r="4" fill="#F3F3FA"/>
<circle cx="405" cy="359" r="4" fill="#F3F3FA"/>
<circle cx="405" cy="375" r="4" fill="#F3F3FA"/>
<circle cx="405" cy="391" r="4" fill="#F3F3FA"/>
<circle cx="372" cy="247" r="4" fill="#F3F3FA"/>
<circle cx="372" cy="263" r="4" fill="#F3F3FA"/>
<circle cx="372" cy="279" r="4" fill="#F3F3FA"/>
<circle cx="372" cy="295" r="4" fill="#F3F3FA"/>
<circle cx="372" cy="311" r="4" fill="#F3F3FA"/>
<circle cx="372" cy="327" r="4" fill="#F3F3FA"/>
<circle cx="372" cy="343" r="4" fill="#F3F3FA"/>
<circle cx="372" cy="359" r="4" fill="#F3F3FA"/>
<circle cx="372" cy="375" r="4" fill="#F3F3FA"/>
<circle cx="372" cy="391" r="4" fill="#F3F3FA"/>
<circle cx="421" cy="247" r="4" fill="#F3F3FA"/>
<circle cx="421" cy="263" r="4" fill="#F3F3FA"/>
<circle cx="421" cy="279" r="4" fill="#F3F3FA"/>
<circle cx="421" cy="295" r="4" fill="#F3F3FA"/>
<circle cx="421" cy="311" r="4" fill="#F3F3FA"/>
<circle cx="421" cy="327" r="4" fill="#F3F3FA"/>
<circle cx="421" cy="343" r="4" fill="#F3F3FA"/>
<circle cx="421" cy="359" r="4" fill="#F3F3FA"/>
<circle cx="421" cy="375" r="4" fill="#F3F3FA"/>
<circle cx="421" cy="391" r="4" fill="#F3F3FA"/>
<circle cx="339" cy="87" r="4" fill="#F3F3FA"/>
<circle cx="339" cy="103" r="4" fill="#F3F3FA"/>
<circle cx="339" cy="119" r="4" fill="#F3F3FA"/>
<circle cx="339" cy="135" r="4" fill="#F3F3FA"/>
<circle cx="339" cy="151" r="4" fill="#F3F3FA"/>
<circle cx="339" cy="167" r="4" fill="#F3F3FA"/>
<circle cx="339" cy="183" r="4" fill="#F3F3FA"/>
<circle cx="339" cy="199" r="4" fill="#F3F3FA"/>
<circle cx="339" cy="215" r="4" fill="#F3F3FA"/>
<circle cx="339" cy="231" r="4" fill="#F3F3FA"/>
<circle cx="436" cy="87" r="4" fill="#F3F3FA"/>
<circle cx="436" cy="103" r="4" fill="#F3F3FA"/>
<circle cx="436" cy="119" r="4" fill="#F3F3FA"/>
<circle cx="436" cy="135" r="4" fill="#F3F3FA"/>
<circle cx="436" cy="151" r="4" fill="#F3F3FA"/>
<circle cx="436" cy="167" r="4" fill="#F3F3FA"/>
<circle cx="436" cy="183" r="4" fill="#F3F3FA"/>
<circle cx="436" cy="199" r="4" fill="#F3F3FA"/>
<circle cx="436" cy="215" r="4" fill="#F3F3FA"/>
<circle cx="436" cy="231" r="4" fill="#F3F3FA"/>
<circle cx="388" cy="87" r="4" fill="#F3F3FA"/>
<circle cx="388" cy="103" r="4" fill="#F3F3FA"/>
<circle cx="388" cy="119" r="4" fill="#F3F3FA"/>
<circle cx="388" cy="135" r="4" fill="#F3F3FA"/>
<circle cx="388" cy="151" r="4" fill="#F3F3FA"/>
<circle cx="388" cy="167" r="4" fill="#F3F3FA"/>
<circle cx="388" cy="183" r="4" fill="#F3F3FA"/>
<circle cx="388" cy="199" r="4" fill="#F3F3FA"/>
<circle cx="388" cy="215" r="4" fill="#F3F3FA"/>
<circle cx="388" cy="231" r="4" fill="#F3F3FA"/>
<circle cx="355" cy="87" r="4" fill="#F3F3FA"/>
<circle cx="355" cy="103" r="4" fill="#F3F3FA"/>
<circle cx="355" cy="119" r="4" fill="#F3F3FA"/>
<circle cx="355" cy="135" r="4" fill="#F3F3FA"/>
<circle cx="355" cy="151" r="4" fill="#F3F3FA"/>
<circle cx="355" cy="167" r="4" fill="#F3F3FA"/>
<circle cx="355" cy="183" r="4" fill="#F3F3FA"/>
<circle cx="355" cy="199" r="4" fill="#F3F3FA"/>
<circle cx="355" cy="215" r="4" fill="#F3F3FA"/>
<circle cx="355" cy="231" r="4" fill="#F3F3FA"/>
<circle cx="452" cy="87" r="4" fill="#F3F3FA"/>
<circle cx="452" cy="103" r="4" fill="#F3F3FA"/>
<circle cx="452" cy="119" r="4" fill="#F3F3FA"/>
<circle cx="452" cy="135" r="4" fill="#F3F3FA"/>
<circle cx="452" cy="151" r="4" fill="#F3F3FA"/>
<circle cx="452" cy="167" r="4" fill="#F3F3FA"/>
<circle cx="452" cy="183" r="4" fill="#F3F3FA"/>
<circle cx="452" cy="199" r="4" fill="#F3F3FA"/>
<circle cx="452" cy="215" r="4" fill="#F3F3FA"/>
<circle cx="452" cy="231" r="4" fill="#F3F3FA"/>
<circle cx="404" cy="87" r="4" fill="#F3F3FA"/>
<circle cx="404" cy="103" r="4" fill="#F3F3FA"/>
<circle cx="404" cy="119" r="4" fill="#F3F3FA"/>
<circle cx="404" cy="135" r="4" fill="#F3F3FA"/>
<circle cx="404" cy="151" r="4" fill="#F3F3FA"/>
<circle cx="404" cy="167" r="4" fill="#F3F3FA"/>
<circle cx="404" cy="183" r="4" fill="#F3F3FA"/>
<circle cx="404" cy="199" r="4" fill="#F3F3FA"/>
<circle cx="404" cy="215" r="4" fill="#F3F3FA"/>
<circle cx="404" cy="231" r="4" fill="#F3F3FA"/>
<circle cx="371" cy="87" r="4" fill="#F3F3FA"/>
<circle cx="371" cy="103" r="4" fill="#F3F3FA"/>
<circle cx="371" cy="119" r="4" fill="#F3F3FA"/>
<circle cx="371" cy="135" r="4" fill="#F3F3FA"/>
<circle cx="371" cy="151" r="4" fill="#F3F3FA"/>
<circle cx="371" cy="167" r="4" fill="#F3F3FA"/>
<circle cx="371" cy="183" r="4" fill="#F3F3FA"/>
<circle cx="371" cy="199" r="4" fill="#F3F3FA"/>
<circle cx="371" cy="215" r="4" fill="#F3F3FA"/>
<circle cx="371" cy="231" r="4" fill="#F3F3FA"/>
<circle cx="420" cy="87" r="4" fill="#F3F3FA"/>
<circle cx="420" cy="103" r="4" fill="#F3F3FA"/>
<circle cx="420" cy="119" r="4" fill="#F3F3FA"/>
<circle cx="420" cy="135" r="4" fill="#F3F3FA"/>
<circle cx="420" cy="151" r="4" fill="#F3F3FA"/>
<circle cx="420" cy="167" r="4" fill="#F3F3FA"/>
<circle cx="420" cy="183" r="4" fill="#F3F3FA"/>
<circle cx="420" cy="199" r="4" fill="#F3F3FA"/>
<circle cx="420" cy="215" r="4" fill="#F3F3FA"/>
<circle cx="420" cy="231" r="4" fill="#F3F3FA"/>
<circle cx="178" cy="375" r="4" fill="#F3F3FA"/>
<circle cx="178" cy="391" r="4" fill="#F3F3FA"/>
<circle cx="178" cy="407" r="4" fill="#F3F3FA"/>
<circle cx="178" cy="423" r="4" fill="#F3F3FA"/>
<circle cx="178" cy="439" r="4" fill="#F3F3FA"/>
<circle cx="178" cy="455" r="4" fill="#F3F3FA"/>
<circle cx="178" cy="471" r="4" fill="#F3F3FA"/>
<circle cx="178" cy="487" r="4" fill="#F3F3FA"/>
<circle cx="275" cy="375" r="4" fill="#F3F3FA"/>
<circle cx="275" cy="391" r="4" fill="#F3F3FA"/>
<circle cx="275" cy="407" r="4" fill="#F3F3FA"/>
<circle cx="275" cy="423" r="4" fill="#F3F3FA"/>
<circle cx="275" cy="439" r="4" fill="#F3F3FA"/>
<circle cx="275" cy="455" r="4" fill="#F3F3FA"/>
<circle cx="275" cy="471" r="4" fill="#F3F3FA"/>
<circle cx="275" cy="487" r="4" fill="#F3F3FA"/>
<circle cx="227" cy="375" r="4" fill="#F3F3FA"/>
<circle cx="227" cy="391" r="4" fill="#F3F3FA"/>
<circle cx="227" cy="407" r="4" fill="#F3F3FA"/>
<circle cx="227" cy="423" r="4" fill="#F3F3FA"/>
<circle cx="227" cy="439" r="4" fill="#F3F3FA"/>
<circle cx="227" cy="455" r="4" fill="#F3F3FA"/>
<circle cx="227" cy="471" r="4" fill="#F3F3FA"/>
<circle cx="227" cy="487" r="4" fill="#F3F3FA"/>
<circle cx="324" cy="375" r="4" fill="#F3F3FA"/>
<circle cx="324" cy="391" r="4" fill="#F3F3FA"/>
<circle cx="324" cy="407" r="4" fill="#F3F3FA"/>
<circle cx="324" cy="423" r="4" fill="#F3F3FA"/>
<circle cx="324" cy="439" r="4" fill="#F3F3FA"/>
<circle cx="324" cy="455" r="4" fill="#F3F3FA"/>
<circle cx="324" cy="471" r="4" fill="#F3F3FA"/>
<circle cx="324" cy="487" r="4" fill="#F3F3FA"/>
<circle cx="194" cy="375" r="4" fill="#F3F3FA"/>
<circle cx="194" cy="391" r="4" fill="#F3F3FA"/>
<circle cx="194" cy="407" r="4" fill="#F3F3FA"/>
<circle cx="194" cy="423" r="4" fill="#F3F3FA"/>
<circle cx="194" cy="439" r="4" fill="#F3F3FA"/>
<circle cx="194" cy="455" r="4" fill="#F3F3FA"/>
<circle cx="194" cy="471" r="4" fill="#F3F3FA"/>
<circle cx="194" cy="487" r="4" fill="#F3F3FA"/>
<circle cx="291" cy="375" r="4" fill="#F3F3FA"/>
<circle cx="291" cy="391" r="4" fill="#F3F3FA"/>
<circle cx="291" cy="407" r="4" fill="#F3F3FA"/>
<circle cx="291" cy="423" r="4" fill="#F3F3FA"/>
<circle cx="291" cy="439" r="4" fill="#F3F3FA"/>
<circle cx="291" cy="455" r="4" fill="#F3F3FA"/>
<circle cx="291" cy="471" r="4" fill="#F3F3FA"/>
<circle cx="291" cy="487" r="4" fill="#F3F3FA"/>
<circle cx="243" cy="375" r="4" fill="#F3F3FA"/>
<circle cx="243" cy="391" r="4" fill="#F3F3FA"/>
<circle cx="243" cy="407" r="4" fill="#F3F3FA"/>
<circle cx="243" cy="423" r="4" fill="#F3F3FA"/>
<circle cx="243" cy="439" r="4" fill="#F3F3FA"/>
<circle cx="243" cy="455" r="4" fill="#F3F3FA"/>
<circle cx="243" cy="471" r="4" fill="#F3F3FA"/>
<circle cx="243" cy="487" r="4" fill="#F3F3FA"/>
<circle cx="210" cy="375" r="4" fill="#F3F3FA"/>
<circle cx="210" cy="391" r="4" fill="#F3F3FA"/>
<circle cx="210" cy="407" r="4" fill="#F3F3FA"/>
<circle cx="210" cy="423" r="4" fill="#F3F3FA"/>
<circle cx="210" cy="439" r="4" fill="#F3F3FA"/>
<circle cx="210" cy="455" r="4" fill="#F3F3FA"/>
<circle cx="210" cy="471" r="4" fill="#F3F3FA"/>
<circle cx="210" cy="487" r="4" fill="#F3F3FA"/>
<circle cx="307" cy="375" r="4" fill="#F3F3FA"/>
<circle cx="307" cy="391" r="4" fill="#F3F3FA"/>
<circle cx="307" cy="407" r="4" fill="#F3F3FA"/>
<circle cx="307" cy="423" r="4" fill="#F3F3FA"/>
<circle cx="307" cy="439" r="4" fill="#F3F3FA"/>
<circle cx="307" cy="455" r="4" fill="#F3F3FA"/>
<circle cx="307" cy="471" r="4" fill="#F3F3FA"/>
<circle cx="307" cy="487" r="4" fill="#F3F3FA"/>
<circle cx="259" cy="375" r="4" fill="#F3F3FA"/>
<circle cx="259" cy="391" r="4" fill="#F3F3FA"/>
<circle cx="259" cy="407" r="4" fill="#F3F3FA"/>
<circle cx="259" cy="423" r="4" fill="#F3F3FA"/>
<circle cx="259" cy="439" r="4" fill="#F3F3FA"/>
<circle cx="259" cy="455" r="4" fill="#F3F3FA"/>
<circle cx="259" cy="471" r="4" fill="#F3F3FA"/>
<circle cx="259" cy="487" r="4" fill="#F3F3FA"/>
<circle cx="178" cy="215" r="4" fill="#F3F3FA"/>
<circle cx="178" cy="231" r="4" fill="#F3F3FA"/>
<circle cx="178" cy="247" r="4" fill="#F3F3FA"/>
<circle cx="178" cy="263" r="4" fill="#F3F3FA"/>
<circle cx="178" cy="279" r="4" fill="#F3F3FA"/>
<circle cx="178" cy="295" r="4" fill="#F3F3FA"/>
<circle cx="178" cy="311" r="4" fill="#F3F3FA"/>
<circle cx="178" cy="327" r="4" fill="#F3F3FA"/>
<circle cx="178" cy="343" r="4" fill="#F3F3FA"/>
<circle cx="178" cy="359" r="4" fill="#F3F3FA"/>
<circle cx="275" cy="215" r="4" fill="#F3F3FA"/>
<circle cx="275" cy="231" r="4" fill="#F3F3FA"/>
<circle cx="275" cy="247" r="4" fill="#F3F3FA"/>
<circle cx="275" cy="263" r="4" fill="#F3F3FA"/>
<circle cx="275" cy="279" r="4" fill="#F3F3FA"/>
<circle cx="275" cy="295" r="4" fill="#F3F3FA"/>
<circle cx="275" cy="311" r="4" fill="#F3F3FA"/>
<circle cx="275" cy="327" r="4" fill="#F3F3FA"/>
<circle cx="275" cy="343" r="4" fill="#F3F3FA"/>
<circle cx="275" cy="359" r="4" fill="#F3F3FA"/>
<circle cx="227" cy="215" r="4" fill="#F3F3FA"/>
<circle cx="227" cy="231" r="4" fill="#F3F3FA"/>
<circle cx="227" cy="247" r="4" fill="#F3F3FA"/>
<circle cx="227" cy="263" r="4" fill="#F3F3FA"/>
<circle cx="227" cy="279" r="4" fill="#F3F3FA"/>
<circle cx="227" cy="295" r="4" fill="#F3F3FA"/>
<circle cx="227" cy="311" r="4" fill="#F3F3FA"/>
<circle cx="227" cy="327" r="4" fill="#F3F3FA"/>
<circle cx="227" cy="343" r="4" fill="#F3F3FA"/>
<circle cx="227" cy="359" r="4" fill="#F3F3FA"/>
<circle cx="324" cy="215" r="4" fill="#F3F3FA"/>
<circle cx="324" cy="231" r="4" fill="#F3F3FA"/>
<circle cx="324" cy="247" r="4" fill="#F3F3FA"/>
<circle cx="324" cy="263" r="4" fill="#F3F3FA"/>
<circle cx="324" cy="279" r="4" fill="#F3F3FA"/>
<circle cx="324" cy="295" r="4" fill="#F3F3FA"/>
<circle cx="324" cy="311" r="4" fill="#F3F3FA"/>
<circle cx="324" cy="327" r="4" fill="#F3F3FA"/>
<circle cx="324" cy="343" r="4" fill="#F3F3FA"/>
<circle cx="324" cy="359" r="4" fill="#F3F3FA"/>
<circle cx="194" cy="215" r="4" fill="#F3F3FA"/>
<circle cx="194" cy="231" r="4" fill="#F3F3FA"/>
<circle cx="194" cy="247" r="4" fill="#F3F3FA"/>
<circle cx="194" cy="263" r="4" fill="#F3F3FA"/>
<circle cx="194" cy="279" r="4" fill="#F3F3FA"/>
<circle cx="194" cy="295" r="4" fill="#F3F3FA"/>
<circle cx="194" cy="311" r="4" fill="#F3F3FA"/>
<circle cx="194" cy="327" r="4" fill="#F3F3FA"/>
<circle cx="194" cy="343" r="4" fill="#F3F3FA"/>
<circle cx="194" cy="359" r="4" fill="#F3F3FA"/>
<circle cx="291" cy="215" r="4" fill="#F3F3FA"/>
<circle cx="291" cy="231" r="4" fill="#F3F3FA"/>
<circle cx="291" cy="247" r="4" fill="#F3F3FA"/>
<circle cx="291" cy="263" r="4" fill="#F3F3FA"/>
<circle cx="291" cy="279" r="4" fill="#F3F3FA"/>
<circle cx="291" cy="295" r="4" fill="#F3F3FA"/>
<circle cx="291" cy="311" r="4" fill="#F3F3FA"/>
<circle cx="291" cy="327" r="4" fill="#F3F3FA"/>
<circle cx="291" cy="343" r="4" fill="#F3F3FA"/>
<circle cx="291" cy="359" r="4" fill="#F3F3FA"/>
<circle cx="243" cy="215" r="4" fill="#F3F3FA"/>
<circle cx="243" cy="231" r="4" fill="#F3F3FA"/>
<circle cx="243" cy="247" r="4" fill="#F3F3FA"/>
<circle cx="243" cy="263" r="4" fill="#F3F3FA"/>
<circle cx="243" cy="279" r="4" fill="#F3F3FA"/>
<circle cx="243" cy="295" r="4" fill="#F3F3FA"/>
<circle cx="243" cy="311" r="4" fill="#F3F3FA"/>
<circle cx="243" cy="327" r="4" fill="#F3F3FA"/>
<circle cx="243" cy="343" r="4" fill="#F3F3FA"/>
<circle cx="243" cy="359" r="4" fill="#F3F3FA"/>
<circle cx="210" cy="215" r="4" fill="#F3F3FA"/>
<circle cx="210" cy="231" r="4" fill="#F3F3FA"/>
<circle cx="210" cy="247" r="4" fill="#F3F3FA"/>
<circle cx="210" cy="263" r="4" fill="#F3F3FA"/>
<circle cx="210" cy="279" r="4" fill="#F3F3FA"/>
<circle cx="210" cy="295" r="4" fill="#F3F3FA"/>
<circle cx="210" cy="311" r="4" fill="#F3F3FA"/>
<circle cx="210" cy="327" r="4" fill="#F3F3FA"/>
<circle cx="210" cy="343" r="4" fill="#F3F3FA"/>
<circle cx="210" cy="359" r="4" fill="#F3F3FA"/>
<circle cx="307" cy="215" r="4" fill="#F3F3FA"/>
<circle cx="307" cy="231" r="4" fill="#F3F3FA"/>
<circle cx="307" cy="247" r="4" fill="#F3F3FA"/>
<circle cx="307" cy="263" r="4" fill="#F3F3FA"/>
<circle cx="307" cy="279" r="4" fill="#F3F3FA"/>
<circle cx="307" cy="295" r="4" fill="#F3F3FA"/>
<circle cx="307" cy="311" r="4" fill="#F3F3FA"/>
<circle cx="307" cy="327" r="4" fill="#F3F3FA"/>
<circle cx="307" cy="343" r="4" fill="#F3F3FA"/>
<circle cx="307" cy="359" r="4" fill="#F3F3FA"/>
<circle cx="259" cy="215" r="4" fill="#F3F3FA"/>
<circle cx="259" cy="231" r="4" fill="#F3F3FA"/>
<circle cx="259" cy="247" r="4" fill="#F3F3FA"/>
<circle cx="259" cy="263" r="4" fill="#F3F3FA"/>
<circle cx="259" cy="279" r="4" fill="#F3F3FA"/>
<circle cx="259" cy="295" r="4" fill="#F3F3FA"/>
<circle cx="259" cy="311" r="4" fill="#F3F3FA"/>
<circle cx="259" cy="327" r="4" fill="#F3F3FA"/>
<circle cx="259" cy="343" r="4" fill="#F3F3FA"/>
<circle cx="259" cy="359" r="4" fill="#F3F3FA"/>
<circle cx="177" cy="55" r="4" fill="#F3F3FA"/>
<circle cx="177" cy="71" r="4" fill="#F3F3FA"/>
<circle cx="177" cy="87" r="4" fill="#F3F3FA"/>
<circle cx="177" cy="103" r="4" fill="#F3F3FA"/>
<circle cx="177" cy="119" r="4" fill="#F3F3FA"/>
<circle cx="177" cy="135" r="4" fill="#F3F3FA"/>
<circle cx="177" cy="151" r="4" fill="#F3F3FA"/>
<circle cx="177" cy="167" r="4" fill="#F3F3FA"/>
<circle cx="177" cy="183" r="4" fill="#F3F3FA"/>
<circle cx="177" cy="199" r="4" fill="#F3F3FA"/>
<circle cx="274" cy="55" r="4" fill="#F3F3FA"/>
<circle cx="274" cy="71" r="4" fill="#F3F3FA"/>
<circle cx="274" cy="87" r="4" fill="#F3F3FA"/>
<circle cx="274" cy="103" r="4" fill="#F3F3FA"/>
<circle cx="274" cy="119" r="4" fill="#F3F3FA"/>
<circle cx="274" cy="135" r="4" fill="#F3F3FA"/>
<circle cx="274" cy="151" r="4" fill="#F3F3FA"/>
<circle cx="274" cy="167" r="4" fill="#F3F3FA"/>
<circle cx="274" cy="183" r="4" fill="#F3F3FA"/>
<circle cx="274" cy="199" r="4" fill="#F3F3FA"/>
<circle cx="226" cy="55" r="4" fill="#F3F3FA"/>
<circle cx="226" cy="71" r="4" fill="#F3F3FA"/>
<circle cx="226" cy="87" r="4" fill="#F3F3FA"/>
<circle cx="226" cy="103" r="4" fill="#F3F3FA"/>
<circle cx="226" cy="119" r="4" fill="#F3F3FA"/>
<circle cx="226" cy="135" r="4" fill="#F3F3FA"/>
<circle cx="226" cy="151" r="4" fill="#F3F3FA"/>
<circle cx="226" cy="167" r="4" fill="#F3F3FA"/>
<circle cx="226" cy="183" r="4" fill="#F3F3FA"/>
<circle cx="226" cy="199" r="4" fill="#F3F3FA"/>
<circle cx="323" cy="55" r="4" fill="#F3F3FA"/>
<circle cx="323" cy="71" r="4" fill="#F3F3FA"/>
<circle cx="323" cy="87" r="4" fill="#F3F3FA"/>
<circle cx="323" cy="103" r="4" fill="#F3F3FA"/>
<circle cx="323" cy="119" r="4" fill="#F3F3FA"/>
<circle cx="323" cy="135" r="4" fill="#F3F3FA"/>
<circle cx="323" cy="151" r="4" fill="#F3F3FA"/>
<circle cx="323" cy="167" r="4" fill="#F3F3FA"/>
<circle cx="323" cy="183" r="4" fill="#F3F3FA"/>
<circle cx="323" cy="199" r="4" fill="#F3F3FA"/>
<circle cx="193" cy="55" r="4" fill="#F3F3FA"/>
<circle cx="193" cy="71" r="4" fill="#F3F3FA"/>
<circle cx="193" cy="87" r="4" fill="#F3F3FA"/>
<circle cx="193" cy="103" r="4" fill="#F3F3FA"/>
<circle cx="193" cy="119" r="4" fill="#F3F3FA"/>
<circle cx="193" cy="135" r="4" fill="#F3F3FA"/>
<circle cx="193" cy="151" r="4" fill="#F3F3FA"/>
<circle cx="193" cy="167" r="4" fill="#F3F3FA"/>
<circle cx="193" cy="183" r="4" fill="#F3F3FA"/>
<circle cx="193" cy="199" r="4" fill="#F3F3FA"/>
<circle cx="290" cy="55" r="4" fill="#F3F3FA"/>
<circle cx="290" cy="71" r="4" fill="#F3F3FA"/>
<circle cx="290" cy="87" r="4" fill="#F3F3FA"/>
<circle cx="290" cy="103" r="4" fill="#F3F3FA"/>
<circle cx="290" cy="119" r="4" fill="#F3F3FA"/>
<circle cx="290" cy="135" r="4" fill="#F3F3FA"/>
<circle cx="290" cy="151" r="4" fill="#F3F3FA"/>
<circle cx="290" cy="167" r="4" fill="#F3F3FA"/>
<circle cx="290" cy="183" r="4" fill="#F3F3FA"/>
<circle cx="290" cy="199" r="4" fill="#F3F3FA"/>
<circle cx="242" cy="55" r="4" fill="#F3F3FA"/>
<circle cx="242" cy="71" r="4" fill="#F3F3FA"/>
<circle cx="242" cy="87" r="4" fill="#F3F3FA"/>
<circle cx="242" cy="103" r="4" fill="#F3F3FA"/>
<circle cx="242" cy="119" r="4" fill="#F3F3FA"/>
<circle cx="242" cy="135" r="4" fill="#F3F3FA"/>
<circle cx="242" cy="151" r="4" fill="#F3F3FA"/>
<circle cx="242" cy="167" r="4" fill="#F3F3FA"/>
<circle cx="242" cy="183" r="4" fill="#F3F3FA"/>
<circle cx="242" cy="199" r="4" fill="#F3F3FA"/>
<circle cx="209" cy="55" r="4" fill="#F3F3FA"/>
<circle cx="209" cy="71" r="4" fill="#F3F3FA"/>
<circle cx="209" cy="87" r="4" fill="#F3F3FA"/>
<circle cx="209" cy="103" r="4" fill="#F3F3FA"/>
<circle cx="209" cy="119" r="4" fill="#F3F3FA"/>
<circle cx="209" cy="135" r="4" fill="#F3F3FA"/>
<circle cx="209" cy="151" r="4" fill="#F3F3FA"/>
<circle cx="209" cy="167" r="4" fill="#F3F3FA"/>
<circle cx="209" cy="183" r="4" fill="#F3F3FA"/>
<circle cx="209" cy="199" r="4" fill="#F3F3FA"/>
<circle cx="306" cy="55" r="4" fill="#F3F3FA"/>
<circle cx="306" cy="71" r="4" fill="#F3F3FA"/>
<circle cx="306" cy="87" r="4" fill="#F3F3FA"/>
<circle cx="306" cy="103" r="4" fill="#F3F3FA"/>
<circle cx="306" cy="119" r="4" fill="#F3F3FA"/>
<circle cx="306" cy="135" r="4" fill="#F3F3FA"/>
<circle cx="306" cy="151" r="4" fill="#F3F3FA"/>
<circle cx="306" cy="167" r="4" fill="#F3F3FA"/>
<circle cx="306" cy="183" r="4" fill="#F3F3FA"/>
<circle cx="306" cy="199" r="4" fill="#F3F3FA"/>
<circle cx="258" cy="55" r="4" fill="#F3F3FA"/>
<circle cx="258" cy="71" r="4" fill="#F3F3FA"/>
<circle cx="258" cy="87" r="4" fill="#F3F3FA"/>
<circle cx="258" cy="103" r="4" fill="#F3F3FA"/>
<circle cx="258" cy="119" r="4" fill="#F3F3FA"/>
<circle cx="258" cy="135" r="4" fill="#F3F3FA"/>
<circle cx="258" cy="151" r="4" fill="#F3F3FA"/>
<circle cx="258" cy="167" r="4" fill="#F3F3FA"/>
<circle cx="258" cy="183" r="4" fill="#F3F3FA"/>
<circle cx="258" cy="199" r="4" fill="#F3F3FA"/>
<circle cx="16" cy="359" r="4" fill="#F3F3FA"/>
<circle cx="16" cy="375" r="4" fill="#F3F3FA"/>
<circle cx="16" cy="391" r="4" fill="#F3F3FA"/>
<circle cx="16" cy="407" r="4" fill="#F3F3FA"/>
<circle cx="16" cy="423" r="4" fill="#F3F3FA"/>
<circle cx="16" cy="439" r="4" fill="#F3F3FA"/>
<circle cx="16" cy="455" r="4" fill="#F3F3FA"/>
<circle cx="16" cy="471" r="4" fill="#F3F3FA"/>
<circle cx="16" cy="487" r="4" fill="#F3F3FA"/>
<circle cx="113" cy="359" r="4" fill="#F3F3FA"/>
<circle cx="113" cy="375" r="4" fill="#F3F3FA"/>
<circle cx="113" cy="391" r="4" fill="#F3F3FA"/>
<circle cx="113" cy="407" r="4" fill="#F3F3FA"/>
<circle cx="113" cy="423" r="4" fill="#F3F3FA"/>
<circle cx="113" cy="439" r="4" fill="#F3F3FA"/>
<circle cx="113" cy="455" r="4" fill="#F3F3FA"/>
<circle cx="113" cy="471" r="4" fill="#F3F3FA"/>
<circle cx="113" cy="487" r="4" fill="#F3F3FA"/>
<circle cx="65" cy="359" r="4" fill="#F3F3FA"/>
<circle cx="65" cy="375" r="4" fill="#F3F3FA"/>
<circle cx="65" cy="391" r="4" fill="#F3F3FA"/>
<circle cx="65" cy="407" r="4" fill="#F3F3FA"/>
<circle cx="65" cy="423" r="4" fill="#F3F3FA"/>
<circle cx="65" cy="439" r="4" fill="#F3F3FA"/>
<circle cx="65" cy="455" r="4" fill="#F3F3FA"/>
<circle cx="65" cy="471" r="4" fill="#F3F3FA"/>
<circle cx="65" cy="487" r="4" fill="#F3F3FA"/>
<circle cx="162" cy="359" r="4" fill="#F3F3FA"/>
<circle cx="162" cy="375" r="4" fill="#F3F3FA"/>
<circle cx="162" cy="391" r="4" fill="#F3F3FA"/>
<circle cx="162" cy="407" r="4" fill="#F3F3FA"/>
<circle cx="162" cy="423" r="4" fill="#F3F3FA"/>
<circle cx="162" cy="439" r="4" fill="#F3F3FA"/>
<circle cx="162" cy="455" r="4" fill="#F3F3FA"/>
<circle cx="162" cy="471" r="4" fill="#F3F3FA"/>
<circle cx="162" cy="487" r="4" fill="#F3F3FA"/>
<circle cx="32" cy="359" r="4" fill="#F3F3FA"/>
<circle cx="32" cy="375" r="4" fill="#F3F3FA"/>
<circle cx="32" cy="391" r="4" fill="#F3F3FA"/>
<circle cx="32" cy="407" r="4" fill="#F3F3FA"/>
<circle cx="32" cy="423" r="4" fill="#F3F3FA"/>
<circle cx="32" cy="439" r="4" fill="#F3F3FA"/>
<circle cx="32" cy="455" r="4" fill="#F3F3FA"/>
<circle cx="32" cy="471" r="4" fill="#F3F3FA"/>
<circle cx="32" cy="487" r="4" fill="#F3F3FA"/>
<circle cx="129" cy="359" r="4" fill="#F3F3FA"/>
<circle cx="129" cy="375" r="4" fill="#F3F3FA"/>
<circle cx="129" cy="391" r="4" fill="#F3F3FA"/>
<circle cx="129" cy="407" r="4" fill="#F3F3FA"/>
<circle cx="129" cy="423" r="4" fill="#F3F3FA"/>
<circle cx="129" cy="439" r="4" fill="#F3F3FA"/>
<circle cx="129" cy="455" r="4" fill="#F3F3FA"/>
<circle cx="129" cy="471" r="4" fill="#F3F3FA"/>
<circle cx="129" cy="487" r="4" fill="#F3F3FA"/>
<circle cx="81" cy="359" r="4" fill="#F3F3FA"/>
<circle cx="81" cy="375" r="4" fill="#F3F3FA"/>
<circle cx="81" cy="391" r="4" fill="#F3F3FA"/>
<circle cx="81" cy="407" r="4" fill="#F3F3FA"/>
<circle cx="81" cy="423" r="4" fill="#F3F3FA"/>
<circle cx="81" cy="439" r="4" fill="#F3F3FA"/>
<circle cx="81" cy="455" r="4" fill="#F3F3FA"/>
<circle cx="81" cy="471" r="4" fill="#F3F3FA"/>
<circle cx="81" cy="487" r="4" fill="#F3F3FA"/>
<circle cx="48" cy="359" r="4" fill="#F3F3FA"/>
<circle cx="48" cy="375" r="4" fill="#F3F3FA"/>
<circle cx="48" cy="391" r="4" fill="#F3F3FA"/>
<circle cx="48" cy="407" r="4" fill="#F3F3FA"/>
<circle cx="48" cy="423" r="4" fill="#F3F3FA"/>
<circle cx="48" cy="439" r="4" fill="#F3F3FA"/>
<circle cx="48" cy="455" r="4" fill="#F3F3FA"/>
<circle cx="48" cy="471" r="4" fill="#F3F3FA"/>
<circle cx="48" cy="487" r="4" fill="#F3F3FA"/>
<circle cx="145" cy="359" r="4" fill="#F3F3FA"/>
<circle cx="145" cy="375" r="4" fill="#F3F3FA"/>
<circle cx="145" cy="391" r="4" fill="#F3F3FA"/>
<circle cx="145" cy="407" r="4" fill="#F3F3FA"/>
<circle cx="145" cy="423" r="4" fill="#F3F3FA"/>
<circle cx="145" cy="439" r="4" fill="#F3F3FA"/>
<circle cx="145" cy="455" r="4" fill="#F3F3FA"/>
<circle cx="145" cy="471" r="4" fill="#F3F3FA"/>
<circle cx="145" cy="487" r="4" fill="#F3F3FA"/>
<circle cx="97" cy="359" r="4" fill="#F3F3FA"/>
<circle cx="97" cy="375" r="4" fill="#F3F3FA"/>
<circle cx="97" cy="391" r="4" fill="#F3F3FA"/>
<circle cx="97" cy="407" r="4" fill="#F3F3FA"/>
<circle cx="97" cy="423" r="4" fill="#F3F3FA"/>
<circle cx="97" cy="439" r="4" fill="#F3F3FA"/>
<circle cx="97" cy="455" r="4" fill="#F3F3FA"/>
<circle cx="97" cy="471" r="4" fill="#F3F3FA"/>
<circle cx="97" cy="487" r="4" fill="#F3F3FA"/>
<circle cx="16" cy="199" r="4" fill="#F3F3FA"/>
<circle cx="16" cy="215" r="4" fill="#F3F3FA"/>
<circle cx="16" cy="231" r="4" fill="#F3F3FA"/>
<circle cx="16" cy="247" r="4" fill="#F3F3FA"/>
<circle cx="16" cy="263" r="4" fill="#F3F3FA"/>
<circle cx="16" cy="279" r="4" fill="#F3F3FA"/>
<circle cx="16" cy="295" r="4" fill="#F3F3FA"/>
<circle cx="16" cy="311" r="4" fill="#F3F3FA"/>
<circle cx="16" cy="327" r="4" fill="#F3F3FA"/>
<circle cx="16" cy="343" r="4" fill="#F3F3FA"/>
<circle cx="113" cy="199" r="4" fill="#F3F3FA"/>
<circle cx="113" cy="215" r="4" fill="#F3F3FA"/>
<circle cx="113" cy="231" r="4" fill="#F3F3FA"/>
<circle cx="113" cy="247" r="4" fill="#F3F3FA"/>
<circle cx="113" cy="263" r="4" fill="#F3F3FA"/>
<circle cx="113" cy="279" r="4" fill="#F3F3FA"/>
<circle cx="113" cy="295" r="4" fill="#F3F3FA"/>
<circle cx="113" cy="311" r="4" fill="#F3F3FA"/>
<circle cx="113" cy="327" r="4" fill="#F3F3FA"/>
<circle cx="113" cy="343" r="4" fill="#F3F3FA"/>
<circle cx="65" cy="199" r="4" fill="#F3F3FA"/>
<circle cx="65" cy="215" r="4" fill="#F3F3FA"/>
<circle cx="65" cy="231" r="4" fill="#F3F3FA"/>
<circle cx="65" cy="247" r="4" fill="#F3F3FA"/>
<circle cx="65" cy="263" r="4" fill="#F3F3FA"/>
<circle cx="65" cy="279" r="4" fill="#F3F3FA"/>
<circle cx="65" cy="295" r="4" fill="#F3F3FA"/>
<circle cx="65" cy="311" r="4" fill="#F3F3FA"/>
<circle cx="65" cy="327" r="4" fill="#F3F3FA"/>
<circle cx="65" cy="343" r="4" fill="#F3F3FA"/>
<circle cx="162" cy="199" r="4" fill="#F3F3FA"/>
<circle cx="162" cy="215" r="4" fill="#F3F3FA"/>
<circle cx="162" cy="231" r="4" fill="#F3F3FA"/>
<circle cx="162" cy="247" r="4" fill="#F3F3FA"/>
<circle cx="162" cy="263" r="4" fill="#F3F3FA"/>
<circle cx="162" cy="279" r="4" fill="#F3F3FA"/>
<circle cx="162" cy="295" r="4" fill="#F3F3FA"/>
<circle cx="162" cy="311" r="4" fill="#F3F3FA"/>
<circle cx="162" cy="327" r="4" fill="#F3F3FA"/>
<circle cx="162" cy="343" r="4" fill="#F3F3FA"/>
<circle cx="32" cy="199" r="4" fill="#F3F3FA"/>
<circle cx="32" cy="215" r="4" fill="#F3F3FA"/>
<circle cx="32" cy="231" r="4" fill="#F3F3FA"/>
<circle cx="32" cy="247" r="4" fill="#F3F3FA"/>
<circle cx="32" cy="263" r="4" fill="#F3F3FA"/>
<circle cx="32" cy="279" r="4" fill="#F3F3FA"/>
<circle cx="32" cy="295" r="4" fill="#F3F3FA"/>
<circle cx="32" cy="311" r="4" fill="#F3F3FA"/>
<circle cx="32" cy="327" r="4" fill="#F3F3FA"/>
<circle cx="32" cy="343" r="4" fill="#F3F3FA"/>
<circle cx="129" cy="199" r="4" fill="#F3F3FA"/>
<circle cx="129" cy="215" r="4" fill="#F3F3FA"/>
<circle cx="129" cy="231" r="4" fill="#F3F3FA"/>
<circle cx="129" cy="247" r="4" fill="#F3F3FA"/>
<circle cx="129" cy="263" r="4" fill="#F3F3FA"/>
<circle cx="129" cy="279" r="4" fill="#F3F3FA"/>
<circle cx="129" cy="295" r="4" fill="#F3F3FA"/>
<circle cx="129" cy="311" r="4" fill="#F3F3FA"/>
<circle cx="129" cy="327" r="4" fill="#F3F3FA"/>
<circle cx="129" cy="343" r="4" fill="#F3F3FA"/>
<circle cx="81" cy="199" r="4" fill="#F3F3FA"/>
<circle cx="81" cy="215" r="4" fill="#F3F3FA"/>
<circle cx="81" cy="231" r="4" fill="#F3F3FA"/>
<circle cx="81" cy="247" r="4" fill="#F3F3FA"/>
<circle cx="81" cy="263" r="4" fill="#F3F3FA"/>
<circle cx="81" cy="279" r="4" fill="#F3F3FA"/>
<circle cx="81" cy="295" r="4" fill="#F3F3FA"/>
<circle cx="81" cy="311" r="4" fill="#F3F3FA"/>
<circle cx="81" cy="327" r="4" fill="#F3F3FA"/>
<circle cx="81" cy="343" r="4" fill="#F3F3FA"/>
<circle cx="48" cy="199" r="4" fill="#F3F3FA"/>
<circle cx="48" cy="215" r="4" fill="#F3F3FA"/>
<circle cx="48" cy="231" r="4" fill="#F3F3FA"/>
<circle cx="48" cy="247" r="4" fill="#F3F3FA"/>
<circle cx="48" cy="263" r="4" fill="#F3F3FA"/>
<circle cx="48" cy="279" r="4" fill="#F3F3FA"/>
<circle cx="48" cy="295" r="4" fill="#F3F3FA"/>
<circle cx="48" cy="311" r="4" fill="#F3F3FA"/>
<circle cx="48" cy="327" r="4" fill="#F3F3FA"/>
<circle cx="48" cy="343" r="4" fill="#F3F3FA"/>
<circle cx="145" cy="199" r="4" fill="#F3F3FA"/>
<circle cx="145" cy="215" r="4" fill="#F3F3FA"/>
<circle cx="145" cy="231" r="4" fill="#F3F3FA"/>
<circle cx="145" cy="247" r="4" fill="#F3F3FA"/>
<circle cx="145" cy="263" r="4" fill="#F3F3FA"/>
<circle cx="145" cy="279" r="4" fill="#F3F3FA"/>
<circle cx="145" cy="295" r="4" fill="#F3F3FA"/>
<circle cx="145" cy="311" r="4" fill="#F3F3FA"/>
<circle cx="145" cy="327" r="4" fill="#F3F3FA"/>
<circle cx="145" cy="343" r="4" fill="#F3F3FA"/>
<circle cx="97" cy="199" r="4" fill="#F3F3FA"/>
<circle cx="97" cy="215" r="4" fill="#F3F3FA"/>
<circle cx="97" cy="231" r="4" fill="#F3F3FA"/>
<circle cx="97" cy="247" r="4" fill="#F3F3FA"/>
<circle cx="97" cy="263" r="4" fill="#F3F3FA"/>
<circle cx="97" cy="279" r="4" fill="#F3F3FA"/>
<circle cx="97" cy="295" r="4" fill="#F3F3FA"/>
<circle cx="97" cy="311" r="4" fill="#F3F3FA"/>
<circle cx="97" cy="327" r="4" fill="#F3F3FA"/>
<circle cx="97" cy="343" r="4" fill="#F3F3FA"/>
<circle cx="339" cy="7" r="4" fill="#F3F3FA"/>
<circle cx="339" cy="23" r="4" fill="#F3F3FA"/>
<circle cx="339" cy="39" r="4" fill="#F3F3FA"/>
<circle cx="339" cy="55" r="4" fill="#F3F3FA"/>
<circle cx="339" cy="71" r="4" fill="#F3F3FA"/>
<circle cx="436" cy="7" r="4" fill="#F3F3FA"/>
<circle cx="436" cy="23" r="4" fill="#F3F3FA"/>
<circle cx="436" cy="39" r="4" fill="#F3F3FA"/>
<circle cx="436" cy="55" r="4" fill="#F3F3FA"/>
<circle cx="436" cy="71" r="4" fill="#F3F3FA"/>
<circle cx="388" cy="7" r="4" fill="#F3F3FA"/>
<circle cx="388" cy="23" r="4" fill="#F3F3FA"/>
<circle cx="388" cy="39" r="4" fill="#F3F3FA"/>
<circle cx="388" cy="55" r="4" fill="#F3F3FA"/>
<circle cx="388" cy="71" r="4" fill="#F3F3FA"/>
<circle cx="355" cy="7" r="4" fill="#F3F3FA"/>
<circle cx="355" cy="23" r="4" fill="#F3F3FA"/>
<circle cx="355" cy="39" r="4" fill="#F3F3FA"/>
<circle cx="355" cy="55" r="4" fill="#F3F3FA"/>
<circle cx="355" cy="71" r="4" fill="#F3F3FA"/>
<circle cx="452" cy="7" r="4" fill="#F3F3FA"/>
<circle cx="452" cy="23" r="4" fill="#F3F3FA"/>
<circle cx="452" cy="39" r="4" fill="#F3F3FA"/>
<circle cx="452" cy="55" r="4" fill="#F3F3FA"/>
<circle cx="452" cy="71" r="4" fill="#F3F3FA"/>
<circle cx="404" cy="7" r="4" fill="#F3F3FA"/>
<circle cx="404" cy="23" r="4" fill="#F3F3FA"/>
<circle cx="404" cy="39" r="4" fill="#F3F3FA"/>
<circle cx="404" cy="55" r="4" fill="#F3F3FA"/>
<circle cx="404" cy="71" r="4" fill="#F3F3FA"/>
<circle cx="371" cy="7" r="4" fill="#F3F3FA"/>
<circle cx="371" cy="23" r="4" fill="#F3F3FA"/>
<circle cx="371" cy="39" r="4" fill="#F3F3FA"/>
<circle cx="371" cy="55" r="4" fill="#F3F3FA"/>
<circle cx="371" cy="71" r="4" fill="#F3F3FA"/>
<circle cx="420" cy="7" r="4" fill="#F3F3FA"/>
<circle cx="420" cy="23" r="4" fill="#F3F3FA"/>
<circle cx="420" cy="39" r="4" fill="#F3F3FA"/>
<circle cx="420" cy="55" r="4" fill="#F3F3FA"/>
<circle cx="420" cy="71" r="4" fill="#F3F3FA"/>
<circle cx="177" cy="7" r="4" fill="#F3F3FA"/>
<circle cx="177" cy="23" r="4" fill="#F3F3FA"/>
<circle cx="177" cy="39" r="4" fill="#F3F3FA"/>
<circle cx="177" cy="55" r="4" fill="#F3F3FA"/>
<circle cx="177" cy="71" r="4" fill="#F3F3FA"/>
<circle cx="274" cy="7" r="4" fill="#F3F3FA"/>
<circle cx="274" cy="23" r="4" fill="#F3F3FA"/>
<circle cx="274" cy="39" r="4" fill="#F3F3FA"/>
<circle cx="274" cy="55" r="4" fill="#F3F3FA"/>
<circle cx="274" cy="71" r="4" fill="#F3F3FA"/>
<circle cx="226" cy="7" r="4" fill="#F3F3FA"/>
<circle cx="226" cy="23" r="4" fill="#F3F3FA"/>
<circle cx="226" cy="39" r="4" fill="#F3F3FA"/>
<circle cx="226" cy="55" r="4" fill="#F3F3FA"/>
<circle cx="226" cy="71" r="4" fill="#F3F3FA"/>
<circle cx="323" cy="7" r="4" fill="#F3F3FA"/>
<circle cx="323" cy="23" r="4" fill="#F3F3FA"/>
<circle cx="323" cy="39" r="4" fill="#F3F3FA"/>
<circle cx="323" cy="55" r="4" fill="#F3F3FA"/>
<circle cx="323" cy="71" r="4" fill="#F3F3FA"/>
<circle cx="193" cy="7" r="4" fill="#F3F3FA"/>
<circle cx="193" cy="23" r="4" fill="#F3F3FA"/>
<circle cx="193" cy="39" r="4" fill="#F3F3FA"/>
<circle cx="193" cy="55" r="4" fill="#F3F3FA"/>
<circle cx="193" cy="71" r="4" fill="#F3F3FA"/>
<circle cx="290" cy="7" r="4" fill="#F3F3FA"/>
<circle cx="290" cy="23" r="4" fill="#F3F3FA"/>
<circle cx="290" cy="39" r="4" fill="#F3F3FA"/>
<circle cx="290" cy="55" r="4" fill="#F3F3FA"/>
<circle cx="290" cy="71" r="4" fill="#F3F3FA"/>
<circle cx="242" cy="7" r="4" fill="#F3F3FA"/>
<circle cx="242" cy="23" r="4" fill="#F3F3FA"/>
<circle cx="242" cy="39" r="4" fill="#F3F3FA"/>
<circle cx="242" cy="55" r="4" fill="#F3F3FA"/>
<circle cx="242" cy="71" r="4" fill="#F3F3FA"/>
<circle cx="209" cy="7" r="4" fill="#F3F3FA"/>
<circle cx="209" cy="23" r="4" fill="#F3F3FA"/>
<circle cx="209" cy="39" r="4" fill="#F3F3FA"/>
<circle cx="209" cy="55" r="4" fill="#F3F3FA"/>
<circle cx="209" cy="71" r="4" fill="#F3F3FA"/>
<circle cx="306" cy="7" r="4" fill="#F3F3FA"/>
<circle cx="306" cy="23" r="4" fill="#F3F3FA"/>
<circle cx="306" cy="39" r="4" fill="#F3F3FA"/>
<circle cx="306" cy="55" r="4" fill="#F3F3FA"/>
<circle cx="306" cy="71" r="4" fill="#F3F3FA"/>
<circle cx="258" cy="7" r="4" fill="#F3F3FA"/>
<circle cx="258" cy="23" r="4" fill="#F3F3FA"/>
<circle cx="258" cy="39" r="4" fill="#F3F3FA"/>
<circle cx="258" cy="55" r="4" fill="#F3F3FA"/>
<circle cx="258" cy="71" r="4" fill="#F3F3FA"/>
<circle cx="80" cy="7" r="4" fill="#F3F3FA"/>
<circle cx="80" cy="23" r="4" fill="#F3F3FA"/>
<circle cx="80" cy="39" r="4" fill="#F3F3FA"/>
<circle cx="80" cy="55" r="4" fill="#F3F3FA"/>
<circle cx="80" cy="71" r="4" fill="#F3F3FA"/>
<circle cx="177" cy="7" r="4" fill="#F3F3FA"/>
<circle cx="177" cy="23" r="4" fill="#F3F3FA"/>
<circle cx="177" cy="39" r="4" fill="#F3F3FA"/>
<circle cx="177" cy="55" r="4" fill="#F3F3FA"/>
<circle cx="177" cy="71" r="4" fill="#F3F3FA"/>
<circle cx="129" cy="7" r="4" fill="#F3F3FA"/>
<circle cx="129" cy="23" r="4" fill="#F3F3FA"/>
<circle cx="129" cy="39" r="4" fill="#F3F3FA"/>
<circle cx="129" cy="55" r="4" fill="#F3F3FA"/>
<circle cx="129" cy="71" r="4" fill="#F3F3FA"/>
<circle cx="226" cy="7" r="4" fill="#F3F3FA"/>
<circle cx="226" cy="23" r="4" fill="#F3F3FA"/>
<circle cx="226" cy="39" r="4" fill="#F3F3FA"/>
<circle cx="226" cy="55" r="4" fill="#F3F3FA"/>
<circle cx="226" cy="71" r="4" fill="#F3F3FA"/>
<circle cx="96" cy="7" r="4" fill="#F3F3FA"/>
<circle cx="96" cy="23" r="4" fill="#F3F3FA"/>
<circle cx="96" cy="39" r="4" fill="#F3F3FA"/>
<circle cx="96" cy="55" r="4" fill="#F3F3FA"/>
<circle cx="96" cy="71" r="4" fill="#F3F3FA"/>
<circle cx="193" cy="7" r="4" fill="#F3F3FA"/>
<circle cx="193" cy="23" r="4" fill="#F3F3FA"/>
<circle cx="193" cy="39" r="4" fill="#F3F3FA"/>
<circle cx="193" cy="55" r="4" fill="#F3F3FA"/>
<circle cx="193" cy="71" r="4" fill="#F3F3FA"/>
<circle cx="145" cy="7" r="4" fill="#F3F3FA"/>
<circle cx="145" cy="23" r="4" fill="#F3F3FA"/>
<circle cx="145" cy="39" r="4" fill="#F3F3FA"/>
<circle cx="145" cy="55" r="4" fill="#F3F3FA"/>
<circle cx="145" cy="71" r="4" fill="#F3F3FA"/>
<circle cx="112" cy="7" r="4" fill="#F3F3FA"/>
<circle cx="112" cy="23" r="4" fill="#F3F3FA"/>
<circle cx="112" cy="39" r="4" fill="#F3F3FA"/>
<circle cx="112" cy="55" r="4" fill="#F3F3FA"/>
<circle cx="112" cy="71" r="4" fill="#F3F3FA"/>
<circle cx="209" cy="7" r="4" fill="#F3F3FA"/>
<circle cx="209" cy="23" r="4" fill="#F3F3FA"/>
<circle cx="209" cy="39" r="4" fill="#F3F3FA"/>
<circle cx="209" cy="55" r="4" fill="#F3F3FA"/>
<circle cx="209" cy="71" r="4" fill="#F3F3FA"/>
<circle cx="161" cy="7" r="4" fill="#F3F3FA"/>
<circle cx="161" cy="23" r="4" fill="#F3F3FA"/>
<circle cx="161" cy="39" r="4" fill="#F3F3FA"/>
<circle cx="161" cy="55" r="4" fill="#F3F3FA"/>
<circle cx="161" cy="71" r="4" fill="#F3F3FA"/>
</g>
</svg>
