<svg width="236" height="168" viewBox="0 0 236 168" fill="none" xmlns="http://www.w3.org/2000/svg">
<circle cx="105" cy="36" r="16" fill="#D20303"/>
<mask id="mask0" mask-type="alpha" maskUnits="userSpaceOnUse" x="89" y="20" width="32" height="32">
<circle cx="105" cy="36" r="16" transform="rotate(-180 105 36)" fill="white"/>
</mask>
<g mask="url(#mask0)">
<rect x="121" y="36" width="32.6667" height="16" transform="rotate(-180 121 36)" fill="white"/>
</g>
<circle cx="63" cy="20" r="20" fill="white"/>
<path d="M62.9999 4C55.9999 4 50.0999 8.5 47.8999 14.7H78.0999C75.8999 8.5 69.9999 4 62.9999 4Z" fill="#AE1C28"/>
<path d="M79 20.0002C79 18.1002 78.7 16.3002 78.1 14.7002H47.9C47.3 16.3002 47 18.1002 47 20.0002C47 21.9002 47.3 23.7002 47.9 25.3002H78.1C78.7 23.7002 79 21.9002 79 20.0002Z" fill="white"/>
<path d="M47.8999 25.2998C50.0999 31.4998 55.9999 35.9998 62.9999 35.9998C69.9999 35.9998 75.8999 31.4998 78.0999 25.2998H47.8999Z" fill="#21468B"/>
<circle cx="101" cy="79" r="20" fill="white"/>
<g clip-path="url(#clip0)">
<path d="M117 79H103.497L88.5376 89.0347C90.0336 90.8952 91.9275 92.3968 94.0802 93.4292C96.2329 94.4615 98.5895 94.9982 100.977 95C105.222 95 109.295 93.315 112.299 90.3151C115.303 87.3152 116.994 83.2456 117 79Z" fill="#D7141A"/>
<path d="M88.5376 68.9653L103.497 79H116.908C116.908 74.7725 115.235 70.7168 112.254 67.7189C109.273 64.7209 105.227 63.0244 101 63V63C98.6093 63.0016 96.2492 63.5382 94.0928 64.5704C91.9364 65.6026 90.0383 67.1043 88.5376 68.9653Z" fill="white"/>
<path d="M103.497 79L88.5376 68.9653C86.2432 71.806 84.9943 75.3485 85 79C84.9943 82.6515 86.2432 86.1941 88.5376 89.0347L103.497 79Z" fill="#11457E"/>
</g>
<circle cx="142" cy="87" r="20" fill="white"/>
<path d="M142 103C133.2 103 126 95.8 126 87C126 78.2 133.2 71 142 71C150.8 71 158 78.2 158 87C158 95.8 150.8 103 142 103Z" fill="#E20C17"/>
<path d="M142 103C133.2 103 126 95.8 126 87C126 78.2 133.2 71 142 71C150.8 71 158 78.2 158 87C158 95.8 150.8 103 142 103Z" fill="#E20C17"/>
<path d="M139.4 93.0999C136.1 93.0999 133.3 90.3999 133.3 86.9999C133.3 83.5999 136 80.8999 139.4 80.8999C141.1 80.8999 142.6 81.5999 143.7 82.6999C142.3 80.6999 140 79.3999 137.4 79.3999C133.2 79.3999 129.8 82.7999 129.8 86.9999C129.8 91.1999 133.2 94.5999 137.4 94.5999C140 94.5999 142.3 93.2999 143.7 91.2999C142.7 92.3999 141.1 93.0999 139.4 93.0999Z" fill="white"/>
<path d="M150.3 89.1999L147.7 88.3999L146.1 90.5999V87.7999L143.5 86.9999L146.1 86.1999V83.3999L147.7 85.5999L150.3 84.7999L148.7 86.9999L150.3 89.1999Z" fill="white"/>
<path d="M139.4 93.0999C136.1 93.0999 133.3 90.3999 133.3 86.9999C133.3 83.5999 136 80.8999 139.4 80.8999C141.1 80.8999 142.6 81.5999 143.7 82.6999C142.3 80.6999 140 79.3999 137.4 79.3999C133.2 79.3999 129.8 82.7999 129.8 86.9999C129.8 91.1999 133.2 94.5999 137.4 94.5999C140 94.5999 142.3 93.2999 143.7 91.2999C142.7 92.3999 141.1 93.0999 139.4 93.0999Z" fill="white"/>
<path d="M150.3 89.1999L147.7 88.3999L146.1 90.5999V87.7999L143.5 86.9999L146.1 86.1999V83.3999L147.7 85.5999L150.3 84.7999L148.7 86.9999L150.3 89.1999Z" fill="white"/>
<circle cx="216" cy="148" r="20" fill="white"/>
<g clip-path="url(#clip1)">
<path d="M232 148C232 151.165 231.062 154.258 229.304 156.889C227.545 159.52 225.047 161.571 222.123 162.782C219.199 163.993 215.982 164.31 212.879 163.693C209.775 163.075 206.924 161.551 204.686 159.314C202.449 157.076 200.925 154.225 200.307 151.121C199.69 148.018 200.007 144.801 201.218 141.877C202.429 138.953 204.48 136.455 207.111 134.696C209.742 132.938 212.836 132 216 132C220.243 132 224.313 133.686 227.314 136.686C230.314 139.687 232 143.757 232 148Z" fill="#006B35"/>
<path d="M224.624 154.798H224.485H222.173C222.173 154.798 222.173 154.798 222.173 154.659C222.18 154.631 222.181 154.603 222.177 154.575C222.172 154.547 222.162 154.521 222.147 154.497C222.132 154.473 222.112 154.453 222.089 154.437C222.065 154.421 222.039 154.41 222.011 154.404C222.011 154.404 221.849 154.22 221.734 154.404C221.705 154.449 221.69 154.501 221.69 154.555C221.69 154.608 221.705 154.66 221.734 154.705C221.726 154.759 221.726 154.813 221.734 154.867V155.006L207.375 154.543C207.565 154.839 207.83 155.078 208.143 155.237C208.456 155.395 208.806 155.467 209.156 155.445H221.826C221.815 155.599 221.815 155.753 221.826 155.907C221.806 155.991 221.806 156.078 221.826 156.162C221.847 156.209 221.884 156.247 221.931 156.269C221.978 156.29 222.032 156.293 222.081 156.277C222.081 156.277 222.196 156.277 222.219 156.139H224C224.105 156.174 224.218 156.174 224.323 156.139C224.485 156.139 224.693 156 224.693 155.329C224.73 155.149 224.705 154.962 224.624 154.798ZM224.092 155.746H223.537C223.537 155.746 223.537 155.584 223.306 155.584C223.257 155.588 223.209 155.603 223.165 155.627C223.121 155.651 223.083 155.683 223.052 155.722H222.335C222.306 155.678 222.291 155.625 222.291 155.572C222.291 155.519 222.306 155.467 222.335 155.422H224.069C224.069 155.422 224.185 155.676 224.092 155.746Z" fill="white"/>
<path d="M204.462 146.035C204.462 146.035 204.162 146.451 204.069 146.913C204.036 147.12 204.036 147.331 204.069 147.538C204.069 147.538 204.208 148.023 204.462 148.046C204.717 148.069 204.856 147.792 204.925 147.63C204.994 147.468 204.925 147.168 204.925 147.144C204.925 147.121 204.925 147.144 204.694 147.283H204.486C204.486 147.283 204.486 147.006 204.486 146.89C204.486 146.775 204.624 146.058 204.462 146.035Z" fill="white"/>
<path d="M206.266 144.162C206.266 144.162 206.058 143.931 205.873 143.908C205.717 143.845 205.543 143.845 205.387 143.908C204.984 144.103 204.658 144.429 204.462 144.832C204.462 144.832 204.462 144.971 204.462 144.994C204.462 145.017 205.688 144.37 206.243 144.162C206.197 144.231 206.266 144.208 206.266 144.162Z" fill="white"/>
<path d="M204.948 140.393C204.948 140.393 204.625 140.092 204.625 139.977C204.635 139.938 204.656 139.903 204.684 139.874C204.712 139.846 204.748 139.826 204.786 139.815C204.852 139.817 204.917 139.832 204.976 139.86C205.036 139.888 205.089 139.928 205.133 139.977C205.191 140.096 205.22 140.226 205.22 140.358C205.22 140.49 205.191 140.621 205.133 140.74C205.133 140.855 204.994 140.971 204.948 140.971C204.902 140.971 204.948 140.763 204.948 140.717C204.961 140.64 204.961 140.562 204.948 140.485V140.393Z" fill="white"/>
<path d="M204.208 141.11C204.17 141.363 204.17 141.62 204.208 141.873C204.208 142.335 204.208 142.312 204.208 142.659C204.208 143.006 204.37 143.168 204.555 143.237C204.606 143.258 204.661 143.27 204.717 143.27C204.772 143.27 204.828 143.258 204.879 143.237C205.11 143.237 205.156 142.774 205.179 142.613C205.202 142.451 205.179 142.243 205.179 142.011C205.179 141.78 205.318 141.688 205.387 141.688C205.457 141.688 205.387 142.173 205.387 142.936C205.387 143.26 205.387 143.399 205.595 143.491C205.804 143.584 205.919 143.491 206.058 143.653C206.074 143.722 206.074 143.793 206.058 143.861C206.105 144.291 206.105 144.726 206.058 145.156C206.058 145.734 206.058 145.78 206.058 145.78C206.058 145.78 206.312 145.618 206.405 145.503C206.666 145.251 206.85 144.93 206.937 144.578C206.961 144.278 206.961 143.976 206.937 143.676C206.937 143.422 206.937 143.214 206.937 143.098C207.004 143.073 207.077 143.073 207.145 143.098C207.306 143.098 207.353 143.214 207.515 143.26C207.688 143.306 207.872 143.295 208.038 143.229C208.205 143.162 208.346 143.043 208.439 142.89C208.529 142.668 208.529 142.419 208.439 142.196C208.403 141.974 208.341 141.757 208.254 141.549C208.238 141.521 208.23 141.489 208.23 141.457C208.23 141.424 208.238 141.392 208.254 141.364C208.254 141.364 208.254 141.364 208.254 141.225C208.248 141.073 208.191 140.926 208.093 140.809C208.093 140.809 207.792 140.555 207.63 140.624C207.468 140.694 207.445 140.948 207.445 141.04C207.45 141.333 207.529 141.62 207.676 141.873C207.792 142.081 207.931 142.196 207.885 142.381C207.902 142.434 207.902 142.491 207.885 142.543C207.885 142.543 207.653 142.543 207.561 142.543C207.433 142.464 207.329 142.353 207.26 142.22C207.26 142.011 207.26 141.942 207.26 141.549C207.264 141.348 207.198 141.153 207.075 140.994C207.075 140.994 206.96 140.855 206.844 140.994C206.728 141.133 206.59 141.387 206.613 141.595C206.602 141.711 206.602 141.827 206.613 141.942V142.104C206.613 142.289 206.752 142.451 206.613 142.543C206.613 142.543 206.497 142.405 206.474 142.266C206.454 142.066 206.454 141.865 206.474 141.665C206.486 141.449 206.486 141.233 206.474 141.017C206.474 140.717 206.335 140.231 206.127 140.185C205.919 140.139 205.919 140.3 205.873 140.416C205.827 140.532 205.873 140.74 205.873 141.04C205.873 141.341 205.873 141.272 205.873 141.734C205.873 142.196 206.081 142.543 205.873 142.751C205.665 142.959 205.873 142.751 205.734 142.751C205.595 142.751 205.595 142.474 205.595 142.335C205.575 142.104 205.575 141.872 205.595 141.642C205.595 141.341 205.595 141.225 205.595 141.133C205.595 141.04 205.457 140.971 205.318 140.994C205.179 141.017 205.11 141.156 204.994 141.341C204.866 141.56 204.787 141.805 204.763 142.058C204.763 142.358 204.763 142.543 204.763 142.613C204.734 142.637 204.697 142.65 204.659 142.65C204.621 142.65 204.584 142.637 204.555 142.613C204.624 142.405 204.624 142.196 204.624 141.873C204.643 141.688 204.643 141.502 204.624 141.318C204.624 141.318 204.624 141.11 204.463 141.087C204.301 141.063 204.463 141.087 204.463 141.087L204.208 141.11Z" fill="white"/>
<path d="M206.937 140C206.937 140 206.937 140.231 206.937 140.278C206.985 140.385 207.066 140.474 207.168 140.532C207.23 140.559 207.297 140.573 207.364 140.573C207.432 140.573 207.499 140.559 207.561 140.532C207.672 140.505 207.771 140.439 207.838 140.347C207.863 140.272 207.863 140.191 207.838 140.116C207.838 140.116 207.838 139.908 207.838 139.885C207.838 139.861 207.723 139.885 207.676 139.885C207.63 139.885 207.676 139.885 207.676 139.885C207.676 139.885 207.676 139.746 207.676 139.723C207.676 139.7 207.676 139.723 207.538 139.723C207.399 139.723 207.538 139.885 207.538 139.885C207.538 139.885 207.538 139.885 207.538 139.769C207.538 139.653 206.937 139.931 206.937 140Z" fill="white"/>
<path d="M211.561 143.399C211.561 143.399 211.422 143.399 211.33 143.399C211.304 143.388 211.277 143.383 211.249 143.383C211.221 143.383 211.194 143.388 211.168 143.399C211.168 143.399 211.168 143.399 211.168 143.607C211.168 143.815 211.168 143.607 211.168 143.607C211.168 143.607 211.168 143.607 211.168 143.422C211.121 143.388 211.064 143.37 211.006 143.37C210.948 143.37 210.891 143.388 210.844 143.422C210.844 143.422 210.844 143.422 210.636 143.723C210.428 144.023 210.636 143.838 210.497 143.861C210.461 143.89 210.416 143.905 210.37 143.905C210.324 143.905 210.279 143.89 210.243 143.861C210.243 143.861 210.243 143.7 210.243 143.561C210.216 143.507 210.175 143.462 210.124 143.431C210.073 143.4 210.014 143.383 209.954 143.383C209.894 143.383 209.835 143.4 209.784 143.431C209.733 143.462 209.692 143.507 209.665 143.561C209.665 143.561 209.665 143.561 209.503 143.561C209.341 143.561 209.503 143.168 209.364 142.659C209.226 142.15 209.364 141.966 209.226 141.804C209.087 141.642 209.11 141.48 209.226 141.411C209.341 141.341 209.503 141.411 209.573 141.411C209.642 141.411 209.573 141.203 209.388 140.809C209.327 140.566 209.217 140.337 209.064 140.139C209.038 140.128 209.011 140.123 208.983 140.123C208.955 140.123 208.928 140.128 208.902 140.139C208.842 140.118 208.777 140.118 208.717 140.139C208.677 140.151 208.639 140.172 208.607 140.2C208.575 140.228 208.55 140.262 208.532 140.301C208.495 140.397 208.495 140.505 208.532 140.601C208.588 140.814 208.627 141.03 208.648 141.249C208.648 141.503 208.648 141.387 208.786 142.266C208.786 142.497 208.786 142.682 208.902 143.029C209.018 143.376 208.902 143.838 208.902 143.908C208.902 143.977 208.717 143.908 208.671 143.908C208.625 143.908 208.463 143.561 208.301 143.561C208.139 143.561 207.908 143.561 207.769 143.561C207.574 143.66 207.418 143.823 207.33 144.023C207.258 144.142 207.221 144.278 207.221 144.416C207.221 144.555 207.258 144.691 207.33 144.809C207.404 144.893 207.498 144.956 207.603 144.992C207.708 145.029 207.821 145.038 207.931 145.018C208.093 145.018 208.231 144.809 208.278 144.856C208.324 144.902 208.278 144.856 208.278 144.856C208.263 145.035 208.207 145.209 208.116 145.364C207.974 145.564 207.783 145.723 207.561 145.827C207.214 146.035 207.006 146.174 206.752 146.104C206.577 146.078 206.415 145.997 206.289 145.873C206.289 145.619 206.289 145.411 206.151 145.087C206.012 144.763 206.151 144.971 206.035 144.971C205.919 144.971 205.85 145.341 205.804 145.549C205.717 145.82 205.717 146.111 205.804 146.382C205.888 146.615 206.052 146.811 206.266 146.937C206.511 147.1 206.808 147.166 207.099 147.122C207.405 147.095 207.696 146.974 207.931 146.775C208.261 146.559 208.512 146.243 208.648 145.873C208.648 145.503 208.648 145.179 208.879 145.018C209.11 144.856 208.879 145.018 209.018 145.018C209.156 145.018 209.018 145.411 209.018 145.549C208.97 145.897 208.843 146.229 208.648 146.52C208.472 146.815 208.226 147.062 207.931 147.237C207.65 147.402 207.331 147.49 207.006 147.492C206.821 147.515 206.634 147.496 206.457 147.436C206.281 147.376 206.121 147.276 205.989 147.145C205.891 147.022 205.82 146.88 205.781 146.729C205.804 146.431 205.74 146.134 205.596 145.873C205.596 145.873 205.411 146.428 205.411 146.474C205.354 146.749 205.354 147.032 205.411 147.307C205.489 147.586 205.66 147.831 205.896 148C206.208 148.188 206.579 148.254 206.937 148.185C207.351 148.168 207.759 148.074 208.139 147.908C208.405 147.768 208.653 147.597 208.879 147.399C209.138 147.151 209.343 146.852 209.48 146.52C209.518 146.299 209.518 146.072 209.48 145.85C209.48 145.411 209.48 144.856 209.48 144.809H209.642C209.732 144.838 209.829 144.838 209.919 144.809H210.104C210.266 144.809 210.266 144.694 210.336 144.671H210.59H211.006C211.122 144.673 211.236 144.641 211.335 144.579C211.433 144.518 211.512 144.429 211.561 144.324C211.561 144.046 211.561 143.769 211.561 143.561V143.399ZM208.093 144.463C208.093 144.463 207.908 144.463 207.815 144.463C207.8 144.448 207.788 144.43 207.779 144.41C207.771 144.39 207.767 144.369 207.767 144.347C207.767 144.325 207.771 144.304 207.779 144.284C207.788 144.264 207.8 144.246 207.815 144.231C207.85 144.209 207.89 144.196 207.931 144.196C207.972 144.196 208.012 144.209 208.047 144.231C208.066 144.284 208.066 144.341 208.047 144.393C208.047 144.393 208.139 144.416 208.093 144.463Z" fill="white"/>
<path d="M210.289 145.364C210.428 145.549 210.474 145.526 210.52 145.618C210.567 145.711 210.52 145.988 210.52 146.058H210.682C210.821 146.058 210.821 145.711 210.821 145.618C210.827 145.449 210.77 145.284 210.659 145.156C210.633 145.11 210.596 145.072 210.552 145.044C210.508 145.015 210.457 144.998 210.405 144.994C210.36 145 210.319 145.022 210.289 145.056C210.259 145.09 210.243 145.134 210.243 145.179C210.243 145.179 210.197 145.248 210.289 145.364Z" fill="white"/>
<path d="M217.433 147.121C217.433 147.121 217.433 146.867 217.433 146.821C217.433 146.775 217.272 146.821 217.179 146.821C217.087 146.821 216.855 146.983 216.879 147.121C216.902 147.26 216.879 147.121 217.064 147.26H217.202C217.202 147.26 217.202 147.399 217.202 147.514C217.212 147.55 217.23 147.583 217.254 147.611C217.278 147.639 217.308 147.661 217.341 147.676C217.341 147.676 217.526 147.676 217.665 147.676C217.803 147.676 218.243 147.676 218.289 147.468C218.317 147.432 218.332 147.387 218.332 147.341C218.332 147.295 218.317 147.25 218.289 147.214C218.289 147.214 218.012 147.214 217.78 147.214C217.549 147.214 217.549 147.214 217.503 147.214C217.457 147.214 217.41 147.26 217.433 147.121Z" fill="white"/>
<path d="M211.098 142.15C211.098 142.15 210.913 142.15 210.867 142.312C210.826 142.378 210.804 142.454 210.804 142.532C210.804 142.61 210.826 142.686 210.867 142.752C210.89 142.801 210.926 142.845 210.97 142.877C211.015 142.909 211.067 142.93 211.121 142.937C211.173 142.969 211.233 142.987 211.295 142.987C211.356 142.987 211.416 142.969 211.468 142.937C211.468 142.937 211.561 142.451 211.561 142.405H211.144C211.144 142.405 211.098 142.197 211.098 142.15Z" fill="white"/>
<path d="M214.89 143.26C214.89 143.26 214.751 143.26 214.705 143.26C214.68 143.298 214.667 143.342 214.667 143.387C214.667 143.433 214.68 143.477 214.705 143.515C214.723 143.58 214.755 143.642 214.798 143.695C214.841 143.747 214.895 143.791 214.956 143.821C215.018 143.852 215.084 143.869 215.153 143.872C215.221 143.875 215.289 143.863 215.353 143.838C215.447 143.772 215.512 143.673 215.537 143.561C215.537 143.422 215.537 143.214 215.537 143.168C215.505 143.141 215.464 143.127 215.422 143.127C215.38 143.127 215.339 143.141 215.306 143.168C215.306 143.168 215.306 143.168 215.306 143.006V143.145C215.306 143.145 214.959 143.306 214.89 143.26Z" fill="white"/>
<path d="M211.954 140.486C211.815 140.486 211.815 141.041 211.954 141.411C212.092 141.78 211.954 142.52 212.439 142.682C212.521 142.727 212.612 142.75 212.705 142.75C212.798 142.75 212.889 142.727 212.971 142.682C213.156 142.52 212.971 142.312 213.225 141.873C213.48 141.434 213.41 141.48 213.457 141.503C213.503 141.526 213.457 141.965 213.457 142.405C213.457 142.405 213.665 142.96 214.058 143.029C214.343 143.017 214.614 142.902 214.821 142.705C214.983 142.59 215.098 142.428 215.237 142.451C215.376 142.474 215.237 142.451 215.399 142.451C215.561 142.451 215.838 142.844 216.139 142.798C216.223 142.773 216.301 142.732 216.368 142.676C216.436 142.621 216.491 142.552 216.532 142.474C216.647 142.312 216.647 142.174 216.717 142.15C216.746 142.138 216.777 142.131 216.809 142.131C216.841 142.131 216.872 142.138 216.902 142.15C216.902 142.15 216.902 142.289 216.902 142.335C216.902 142.382 217.063 142.335 217.087 142.335C217.11 142.335 217.364 142.035 217.41 141.919C217.457 141.804 217.41 141.688 217.41 141.642C217.41 141.595 217.41 141.642 217.133 141.642C216.855 141.642 216.902 141.642 216.855 141.642C216.809 141.642 216.694 141.642 216.601 141.364C216.509 141.087 216.185 140.971 216.37 140.786C216.555 140.601 216.37 140.648 216.555 140.648C216.555 140.648 216.555 140.231 216.3 139.977C216.252 139.92 216.191 139.874 216.124 139.843C216.056 139.811 215.982 139.793 215.907 139.792C215.676 139.792 215.607 140.208 215.607 140.416C215.61 140.652 215.691 140.879 215.838 141.064C215.968 141.181 216.085 141.313 216.185 141.457C216.185 141.642 216.185 141.965 216.185 142.058C216.127 142.086 216.064 142.101 216 142.101C215.936 142.101 215.872 142.086 215.815 142.058C215.63 141.919 215.584 141.711 215.537 141.364C215.523 141.118 215.523 140.871 215.537 140.624C215.571 140.433 215.571 140.238 215.537 140.046C215.537 139.908 215.537 139.7 215.329 139.676C215.121 139.653 215.075 139.885 215.052 139.954C215.018 140.09 215.018 140.233 215.052 140.37C215.091 140.544 215.146 140.714 215.214 140.879C215.229 141.032 215.229 141.187 215.214 141.341C215.219 141.464 215.2 141.587 215.156 141.703C215.112 141.818 215.045 141.923 214.959 142.012C214.907 142.06 214.845 142.097 214.777 142.121C214.71 142.145 214.638 142.155 214.566 142.15C214.5 142.18 214.428 142.194 214.356 142.194C214.283 142.193 214.212 142.177 214.146 142.146C214.08 142.115 214.022 142.071 213.975 142.016C213.928 141.961 213.893 141.896 213.873 141.827C213.873 141.665 213.873 141.549 213.873 141.11C213.873 140.671 213.873 140.37 213.873 140.324C213.822 140.299 213.767 140.287 213.711 140.287C213.655 140.287 213.599 140.299 213.549 140.324C213.063 140.509 212.948 141.318 212.948 141.457V141.619C212.948 141.85 212.948 142.012 212.786 142.035C212.624 142.058 212.601 142.035 212.555 141.85C212.392 141.68 212.273 141.474 212.208 141.249C212.208 140.902 212.208 140.763 212.208 140.555C212.208 140.347 212 140.463 211.954 140.486Z" fill="white"/>
<path d="M212.717 139.653C212.555 139.653 212.462 139.954 212.439 139.977C212.413 140.091 212.413 140.21 212.439 140.324C212.423 140.36 212.414 140.4 212.414 140.439C212.414 140.479 212.423 140.519 212.439 140.555C212.439 140.555 212.647 140.555 212.717 140.555C212.786 140.555 212.717 140.416 212.717 140.37C212.717 140.324 212.717 140.37 212.555 140.37C212.393 140.37 212.555 140.208 212.555 140.185C212.555 140.162 212.555 140.046 212.694 139.931C212.694 139.931 212.74 139.653 212.717 139.653Z" fill="white"/>
<path d="M214.219 139.699C214.119 139.806 214.062 139.946 214.058 140.092C214.058 140.277 214.058 140.254 214.058 140.532C214.058 140.809 214.058 140.763 214.058 140.763H214.196C214.338 140.553 214.395 140.297 214.358 140.046C214.358 140.046 214.358 139.861 214.358 139.838C214.358 139.815 214.243 139.676 214.219 139.699Z" fill="white"/>
<path d="M220.462 145.133C220.262 144.643 220.006 144.178 219.699 143.746C219.422 143.306 219.168 142.867 218.89 142.451C218.613 142.035 218.89 141.595 218.774 141.364V141.11C218.774 141.11 218.52 140.648 218.173 140.139C218.173 140.139 218.035 139.954 217.965 139.954C217.896 139.954 217.78 140.208 217.78 140.37C217.756 140.5 217.756 140.633 217.78 140.763C217.78 140.624 217.549 140.439 217.526 140.393C217.382 140.236 217.228 140.089 217.063 139.954C216.786 139.746 216.717 139.746 216.694 139.769C216.67 139.792 216.694 139.885 216.555 140.023C216.498 140.204 216.498 140.398 216.555 140.578C216.55 140.632 216.55 140.686 216.555 140.74C217.084 141.353 217.571 142.002 218.011 142.682C218.497 144.116 218.497 146.058 218.497 146.567C218.497 147.075 218.497 147.191 218.497 147.237C218.497 147.283 218.798 146.983 218.867 146.844C219.05 146.505 219.107 146.112 219.029 145.734C219.029 145.734 219.029 144.717 218.867 143.653C219.029 143.908 219.144 144.162 219.26 144.37C219.554 145.034 219.91 145.669 220.324 146.266C220.578 146.312 220.624 145.595 220.462 145.133ZM217.803 140.856C217.803 140.856 217.988 140.856 218.035 140.856C218.04 140.94 218.04 141.025 218.035 141.11C218.05 141.24 218.05 141.372 218.035 141.503L217.803 140.856Z" fill="white"/>
<path d="M219.167 140.162C219.167 140.301 219.283 140.347 219.422 140.601C219.439 140.716 219.439 140.833 219.422 140.948C219.422 141.179 219.422 141.318 219.422 141.318C219.422 141.318 219.584 141.179 219.653 140.994C219.708 140.866 219.737 140.729 219.737 140.59C219.737 140.45 219.708 140.313 219.653 140.185C219.653 140.185 219.468 139.907 219.306 139.931C219.267 139.956 219.234 139.99 219.209 140.03C219.185 140.07 219.171 140.115 219.167 140.162Z" fill="white"/>
<path d="M219.375 141.965C219.375 141.965 219.375 141.965 219.375 141.827C219.375 141.688 219.375 141.827 219.214 141.965C219.179 142.021 219.16 142.085 219.16 142.15C219.16 142.216 219.179 142.28 219.214 142.335C219.273 142.388 219.342 142.428 219.418 142.452C219.494 142.476 219.574 142.484 219.653 142.474C219.653 142.474 219.907 142.474 220 142.266C220.092 142.058 220 141.988 220 141.896C220 141.803 220 141.896 220 141.896C220 141.896 220 142.035 220 142.058C220 142.058 219.884 142.058 219.861 142.058C219.838 142.058 219.861 142.058 219.861 142.058C219.861 142.058 219.399 141.988 219.375 141.965Z" fill="white"/>
<path d="M223.121 142.52C223.121 142.52 223.121 142.52 222.983 142.358C222.943 142.328 222.894 142.312 222.844 142.312C222.794 142.312 222.745 142.328 222.705 142.358C222.705 142.358 222.705 142.566 222.705 142.613C222.705 142.659 222.705 142.821 223.144 143.167C223.584 143.514 223.514 143.445 223.561 143.422C223.607 143.399 223.561 143.422 223.561 143.214C223.561 143.006 223.561 142.774 223.561 142.682C223.561 142.589 223.699 142.682 223.769 142.543C223.783 142.49 223.783 142.434 223.769 142.381C223.789 142.301 223.781 142.217 223.748 142.141C223.714 142.066 223.657 142.004 223.584 141.965C223.537 141.931 223.48 141.913 223.422 141.913C223.364 141.913 223.307 141.931 223.26 141.965C223.26 142.104 223.26 142.335 223.26 142.404H223.121V142.52Z" fill="white"/>
<path d="M225.688 147.445C225.688 147.445 225.688 147.445 225.688 147.26C225.688 147.075 225.526 147.075 225.364 147.075C225.202 147.075 225.133 147.075 225.133 147.237C225.133 147.399 225.341 147.237 225.364 147.468C225.376 147.522 225.376 147.577 225.364 147.63C225.364 147.815 225.11 147.815 225.11 147.931C225.11 148.046 225.11 148.069 225.11 148.093C225.11 148.116 225.295 148.093 225.595 147.884C225.896 147.676 225.827 147.884 225.85 147.746C225.866 147.718 225.875 147.686 225.875 147.653C225.875 147.621 225.866 147.589 225.85 147.561C225.85 147.561 225.642 147.561 225.595 147.561L225.688 147.445Z" fill="white"/>
<path d="M222.405 145.041C222.405 145.041 222.405 144.347 222.104 142.728C222.104 142.266 221.942 141.781 221.896 141.295H222.035C222.035 141.295 222.197 141.295 222.243 141.295C222.289 141.295 222.243 141.11 222.243 141.064C222.243 141.017 222.127 140.856 222.081 140.74L221.804 140.254C221.804 140.254 221.688 139.908 221.572 139.931C221.457 139.954 221.387 140.416 221.364 140.74C221.303 141.138 221.303 141.544 221.364 141.942C221.673 143.281 221.874 144.641 221.965 146.012C221.965 146.382 221.965 146.89 221.965 146.937C221.965 146.983 222.22 146.682 222.312 146.474C222.495 146.018 222.527 145.516 222.405 145.041Z" fill="white"/>
<path d="M220.416 139.954C220.279 140.169 220.199 140.416 220.185 140.67C220.185 141.04 220.185 141.11 220.324 141.665C220.311 141.764 220.311 141.865 220.324 141.965C220.324 143.722 220.555 144.462 220.601 145.156C220.634 145.517 220.634 145.881 220.601 146.243C220.558 146.415 220.461 146.569 220.324 146.682C219.903 147.082 219.438 147.431 218.936 147.722C218.936 147.722 218.774 147.722 218.751 147.722C218.728 147.722 218.751 147.907 218.959 147.954C219.09 148.014 219.232 148.045 219.376 148.045C219.519 148.045 219.661 148.014 219.792 147.954C220.237 147.752 220.597 147.4 220.809 146.959C220.981 146.618 221.098 146.251 221.156 145.873C221.221 144.69 221.104 143.505 220.809 142.358C220.809 142.358 220.601 141.248 220.809 141.248C220.809 141.248 220.809 141.11 220.809 141.087C220.853 140.951 220.853 140.806 220.809 140.67C220.555 140.208 220.509 139.884 220.416 139.907C220.324 139.931 220.416 139.931 220.416 139.954Z" fill="white"/>
<path d="M224.231 144.116C224.37 143.977 224.37 143.515 224.231 143.561C224.093 143.607 223.26 144.185 223.145 144.301C223.029 144.416 222.96 144.463 222.96 144.578C222.947 144.678 222.947 144.779 222.96 144.879C223.404 144.661 223.83 144.405 224.231 144.116Z" fill="white"/>
<path d="M223.907 144.462C223.907 144.462 223.907 144.902 223.907 144.994C223.927 145.225 223.927 145.457 223.907 145.688C223.907 145.688 223.907 145.965 224.046 145.873C224.181 145.715 224.269 145.523 224.3 145.318C224.244 145.025 224.159 144.738 224.046 144.462C224.046 144.462 223.977 144.416 223.907 144.462Z" fill="white"/>
<path d="M226.497 141.248C226.497 141.248 226.497 141.48 226.497 141.641C226.497 141.803 226.497 142.035 226.497 142.035C226.497 142.035 226.682 141.826 226.728 141.595C226.79 141.384 226.79 141.159 226.728 140.948C226.728 140.786 226.728 140.647 226.497 140.601C226.461 140.583 226.421 140.573 226.381 140.573C226.341 140.573 226.301 140.583 226.266 140.601C226.266 140.601 226.266 140.855 226.266 140.925C226.311 141.052 226.391 141.165 226.497 141.248Z" fill="white"/>
<path d="M226.035 146.728C226.197 146.52 226.312 146.474 226.358 146.219C226.382 145.896 226.382 145.572 226.358 145.248C226.59 145.618 226.821 145.988 226.983 146.312L227.26 146.682C227.393 146.316 227.393 145.915 227.26 145.549C227 145.082 226.706 144.633 226.382 144.208C226.367 143.626 226.305 143.046 226.197 142.474C225.965 141.456 225.942 141.318 226.197 141.318C226.451 141.318 225.965 140.3 225.827 140.046C225.803 140.017 225.773 139.994 225.739 139.978C225.705 139.961 225.668 139.953 225.63 139.953C225.593 139.953 225.555 139.961 225.521 139.978C225.488 139.994 225.458 140.017 225.434 140.046C225.377 140.087 225.335 140.145 225.314 140.212C225.294 140.278 225.295 140.35 225.318 140.416C225.318 140.971 225.503 141.549 225.572 142.127C225.642 142.705 225.688 142.913 225.734 143.306L225.087 142.428C225.087 141.803 225.087 141.364 225.087 141.341C225.087 141.318 225.249 141.341 225.249 141.202C225.189 140.965 225.078 140.745 224.925 140.555C224.624 140.254 224.694 139.954 224.578 139.977C224.463 140 224.37 140.162 224.37 140.231C224.37 140.3 224.37 140.994 224.37 141.433C224.256 141.289 224.155 141.134 224.069 140.971C224.069 140.855 224.069 140.855 224.069 140.855C224.091 140.867 224.114 140.874 224.139 140.874C224.163 140.874 224.187 140.867 224.208 140.855C224.208 140.855 223.168 139.653 223.26 140.046C223.26 140.046 223.006 140.786 223.26 141.179L224.324 142.589C224.318 142.713 224.318 142.836 224.324 142.959C224.48 144.031 224.527 145.115 224.463 146.196C224.463 146.335 224.324 146.636 224.139 146.659C223.954 146.682 223.861 146.659 223.769 146.428C223.676 146.196 223.491 145.965 223.33 145.896C223.263 145.872 223.192 145.864 223.122 145.873C223.122 145.873 222.89 146.081 222.728 146.566C222.567 147.052 222.543 147.237 222.382 147.376C222.27 147.418 222.146 147.418 222.035 147.376C221.734 147.376 221.642 146.728 221.595 146.566C221.561 146.344 221.561 146.118 221.595 145.896C221.48 146.154 221.42 146.434 221.42 146.717C221.42 146.999 221.48 147.279 221.595 147.537C221.804 147.884 222.22 148.185 222.451 148.092C222.682 148 222.821 147.63 222.937 146.982C222.956 146.89 223.005 146.806 223.076 146.744C223.146 146.682 223.236 146.644 223.33 146.636C223.653 146.636 223.746 147.144 224.139 147.237C224.303 147.256 224.469 147.235 224.622 147.174C224.775 147.114 224.911 147.016 225.017 146.89C225.202 146.705 225.318 146.289 225.133 144.347C225.133 144.023 225.133 143.676 225.133 143.329L225.78 144.277C225.78 145.156 225.827 146.011 225.919 146.844C225.919 146.844 225.873 146.959 226.035 146.728Z" fill="white"/>
<path d="M227.746 141.248C227.746 141.248 228.139 141.248 228.092 141.248C228.046 141.248 227.468 140 227.214 140.046C226.96 140.092 227.029 140.347 227.029 140.485C227.029 140.624 227.029 141.341 227.168 141.85C227.392 143.475 227.531 145.111 227.584 146.751C227.463 147.047 227.272 147.308 227.029 147.514C226.844 147.699 226.035 148.023 226.035 148.231C226.035 148.439 226.451 148.439 226.867 148.231C227.135 148.171 227.38 148.037 227.576 147.845C227.772 147.653 227.911 147.411 227.977 147.144C228.085 145.991 228.085 144.83 227.977 143.676C227.847 142.873 227.77 142.062 227.746 141.248Z" fill="white"/>
<path d="M218.359 145.063C218.359 145.063 218.151 145.063 218.081 145.063C217.366 145.129 216.646 145.129 215.931 145.063C215.931 145.063 216.093 145.063 216.324 145.063C216.64 145 216.934 144.856 217.18 144.647C217.3 144.561 217.402 144.451 217.477 144.324C217.553 144.196 217.601 144.054 217.619 143.907C217.637 143.749 217.607 143.59 217.533 143.45C217.458 143.309 217.343 143.195 217.203 143.121C217.085 143.058 216.954 143.026 216.821 143.026C216.688 143.026 216.557 143.058 216.44 143.121C216.33 143.209 216.239 143.317 216.172 143.44C216.104 143.563 216.062 143.698 216.047 143.838C216.047 144.162 216.047 144.208 216.047 144.347C216.047 144.485 215.399 144.347 214.844 144.624C214.573 144.755 214.348 144.964 214.197 145.225C214.197 145.086 214.197 144.925 214.197 144.74C213.873 143.56 213.734 143.26 213.549 143.075C213.365 142.89 213.318 142.821 213.18 142.844C213.041 142.867 213.041 143.26 213.041 143.352C213.057 143.7 213.152 144.04 213.318 144.347C213.441 144.634 213.519 144.938 213.549 145.248C213.547 145.652 213.427 146.046 213.203 146.381C212.97 146.741 212.642 147.029 212.255 147.214C212.151 147.268 212.036 147.297 211.919 147.297C211.803 147.297 211.687 147.268 211.584 147.214C211.528 147.178 211.481 147.13 211.445 147.074C211.409 147.019 211.385 146.956 211.376 146.89C211.653 146.72 211.909 146.519 212.139 146.289C212.5 145.992 212.739 145.572 212.81 145.11C212.874 144.759 212.809 144.397 212.625 144.092C212.625 144.092 212.625 144.092 212.625 143.953C212.625 143.815 212.763 143.953 212.81 143.953C212.856 143.953 212.81 143.676 212.671 143.514C212.627 143.428 212.565 143.353 212.489 143.293C212.413 143.233 212.325 143.19 212.232 143.167C212.155 143.164 212.078 143.177 212.006 143.205C211.935 143.232 211.87 143.275 211.815 143.329C211.677 143.56 211.815 143.884 211.815 143.93C211.815 143.977 212 144.069 212.116 144.254C212.22 144.403 212.276 144.581 212.278 144.763C212.308 144.915 212.308 145.073 212.278 145.225C212.066 145.636 211.736 145.975 211.33 146.196C211.345 145.95 211.345 145.703 211.33 145.456C211.33 145.456 211.052 145.826 210.937 146.266C210.928 146.342 210.928 146.42 210.937 146.497C210.497 146.751 210.497 146.728 210.104 146.982C209.711 147.237 208.763 147.815 208.833 147.953C208.902 148.092 210.266 147.537 210.336 147.514L210.867 147.283C210.894 147.398 210.941 147.508 211.006 147.607C211.105 147.768 211.24 147.904 211.401 148.004C211.561 148.105 211.743 148.166 211.931 148.185C212.271 148.141 212.588 147.986 212.833 147.745C213.284 147.448 213.644 147.032 213.873 146.543C213.845 146.649 213.845 146.761 213.873 146.867C213.948 147.016 214.059 147.143 214.197 147.237C214.468 147.466 214.772 147.653 215.099 147.792C215.307 147.792 215.723 148.023 215.931 147.792C216.032 147.769 216.122 147.712 216.185 147.63C216.202 147.546 216.202 147.459 216.185 147.375C216.185 147.214 215.931 147.26 215.769 147.052C215.717 147.011 215.677 146.958 215.653 146.897C215.628 146.836 215.621 146.77 215.63 146.705C215.63 146.566 215.815 146.497 216.047 146.427C216.503 146.312 216.966 146.227 217.434 146.173C217.734 146.173 217.919 146.173 217.989 145.942C218.058 145.711 217.989 145.734 217.989 145.549C218.042 145.405 218.12 145.272 218.22 145.156C218.22 145.156 218.497 145.086 218.359 145.063ZM216.532 143.56C216.532 143.56 216.671 143.56 216.763 143.56C216.856 143.56 216.763 143.56 216.902 143.792C217.041 144.023 216.902 143.792 216.902 143.792C216.902 143.792 216.763 143.792 216.694 143.792C216.625 143.792 216.486 143.745 216.532 143.56ZM215.145 146.173C215.145 146.358 215.145 146.52 215.145 146.589C215.145 146.659 215.006 146.589 214.937 146.589C214.793 146.541 214.666 146.452 214.572 146.333C214.477 146.214 214.419 146.07 214.405 145.919C214.405 145.919 214.405 145.572 214.405 145.479C214.405 145.387 214.59 145.479 214.844 145.479C215.099 145.479 215.376 145.364 215.538 145.479C215.565 145.546 215.565 145.621 215.538 145.688C215.63 146.058 215.26 146.034 215.145 146.266V146.173Z" fill="white"/>
</g>
<circle cx="173" cy="129" r="20" fill="white"/>
<g clip-path="url(#clip2)">
<path d="M188.076 134.326C186.968 137.442 184.924 140.138 182.222 142.045C179.521 143.952 176.295 144.976 172.988 144.976C169.681 144.976 166.456 143.952 163.754 142.045C161.053 140.138 159.008 137.442 157.901 134.326H188.076Z" fill="#00793D"/>
<path d="M189 128.989C189.003 130.808 188.691 132.614 188.076 134.326H157.901C157.303 132.61 156.998 130.806 157 128.989C156.999 127.17 157.311 125.364 157.924 123.651H188.076C188.689 125.364 189.001 127.17 189 128.989Z" fill="white"/>
<path d="M188.075 123.651H157.924C158.529 121.907 159.445 120.287 160.627 118.869C162.422 116.674 164.768 114.995 167.426 114.006C170.083 113.016 172.956 112.752 175.749 113.238C178.542 113.725 181.156 114.946 183.322 116.776C185.488 118.606 187.129 120.978 188.075 123.651Z" fill="black"/>
<path d="M180.867 128.989L170.216 134.326L160.627 139.131C159.446 137.7 158.524 136.074 157.901 134.326C157.303 132.61 156.998 130.806 157 128.989C156.999 127.17 157.311 125.364 157.924 123.651C158.53 121.907 159.446 120.287 160.627 118.869L170.216 123.651L180.867 128.989Z" fill="#CD1225"/>
<path d="M165.11 126.771L165.618 128.064L166.935 127.648L166.242 128.85L167.374 129.635L166.011 129.843L166.126 131.207L165.11 130.282L164.093 131.207L164.185 129.843L162.822 129.635L163.978 128.85L163.284 127.648L164.601 128.064L165.11 126.771Z" fill="white"/>
</g>
<circle cx="20" cy="71" r="20" fill="white"/>
<path d="M4 71.0466C4.00483 74.3614 5.03173 77.5937 6.93996 80.3004C8.84819 83.007 11.5444 85.0556 14.659 86.1654V55.9277C11.5444 57.0375 8.84819 59.0861 6.93996 61.7927C5.03173 64.4994 4.00483 67.7317 4 71.0466H4Z" fill="#062493"/>
<path d="M35.9998 71.0466C35.995 67.7317 34.968 64.4994 33.0598 61.7927C31.1516 59.0861 28.4554 57.0375 25.3408 55.9277V86.0726C28.4406 84.9682 31.1264 82.9338 33.0333 80.2456C34.9402 77.5573 35.976 74.3456 35.9998 71.0466Z" fill="#EC2938"/>
<path d="M20.0002 55C18.1798 54.9968 16.3726 55.3106 14.6592 55.9276V86.0724C18.1131 87.3092 21.8873 87.3092 25.3413 86.0724V55.9276C23.6274 55.3124 21.8205 54.9986 20.0002 55Z" fill="white"/>
<circle cx="61" cy="64" r="20" fill="white"/>
<path d="M61.0003 48C54.0669 48 48.1336 52.4667 45.9336 58.6667H76.1336C73.8669 52.4667 67.9336 48 61.0003 48Z" fill="black"/>
<path d="M77 63.9998C77 62.1332 76.6667 60.3332 76.0667 58.6665H45.9333C45.3333 60.3332 45 62.1332 45 63.9998C45 65.8665 45.3333 67.6665 45.9333 69.3332H76.1333C76.6667 67.6665 77 65.8665 77 63.9998Z" fill="#DC0201"/>
<path d="M45.9336 69.3335C48.1336 75.5335 54.0669 80.0002 61.0003 80.0002C67.9336 80.0002 73.8669 75.5335 76.0669 69.3335H45.9336Z" fill="#FECD17"/>
<path d="M46 69C48.2 75.2 54.1333 79.6667 61.0667 79.6667C68 79.6667 73.9333 75.2 76.1333 69H46Z" fill="#FECD17"/>
<defs>
<clipPath id="clip0">
<rect width="32" height="32" fill="white" transform="translate(85 63)"/>
</clipPath>
<clipPath id="clip1">
<rect width="32" height="32" fill="white" transform="translate(200 132)"/>
</clipPath>
<clipPath id="clip2">
<rect width="32" height="32" fill="white" transform="translate(157 113)"/>
</clipPath>
</defs>
</svg>
